<?xml version="1.0" encoding="UTF-8" standalone="no"?><svg xmlns="http://www.w3.org/2000/svg" xmlns:xlink="http://www.w3.org/1999/xlink" contentScriptType="text/ecmascript" fill="#000000" width="1258.2" zoomAndPan="magnify" contentStyleType="text/css" viewBox="-0.7 0.0 1258.2 1400.0" height="1400" preserveAspectRatio="xMidYMid meet" version="1"><g id="change1_1"><path fill="#f29051" d="M74.2704773,1335.3238525c-6.9492188,2.0389404-20.9034958-8.2054443-31.1623192-22.8803711 s-12.9434013-28.2266846-5.994751-30.265625c0.2583618-0.0750732,90.430069-26.4517822,140.2185974,0.9501953 c12.2574463,6.7456055,36.3960876-3.5408936,63.7557678-15.2034912 c40.1710815-17.1199951,86.5382996-36.8812256,135.4863281-10.1143799 c34.5289001,18.880249,57.9922791,27.2561035,78.4642639,28.7780762 c21.2255859,1.5783691,40.1970215-3.9698486,64.8924255-12.8336182 c26.3217163-9.4488525,49.9244995-13.8217773,75.2928467-11.411377 c26.2004395,2.4882812,53.8986206,12.0656738,87.6546631,30.5040283 c26.0792236,14.2434082,53.6487427,3.9842529,82.4412231-6.730835c29.225769-10.87854,59.5983276-22.1801758,96.7080078-10.8236084 c33.9422607,10.3874512,53.9318848,14.793457,67.8269043,15.059082c13.4533691,0.256958,21.713562-3.4398193,32.0897217-9.3187256 c11.6611938-6.6081543,21.800415-12.0366211,32.0288086-14.1448975c12.3414917-2.5429688,25.2098389-0.309082,40.8434448,9.8503418 c6.9102783,4.4897461,15.1169434,8.1564941,26.0820312,8.0019531c13.2480469-0.1848145,29.2358398-5.7880859,49.241333-21.0493164 c47.7814941-36.447998,122.9168701,28.2120361,123.1335449,28.3969727 c12.3719482,10.4711914,22.925293,27.4539795,23.569458,37.9268799c0.644165,10.473999-8.8637695,10.4753418-21.2341309,0.0028076 c-0.1414795-0.1185303-48.9970703-42.2675781-85.114502-14.717041 c-21.9420166,16.7373047-40.2370605,22.8934326-55.9146729,23.1131592 c-17.9661865,0.2526855-33.3616943-7.0197754-47.0531006-15.9156494c-4.9619141-3.2247314-10.645874-3.6046143-17.310791-2.2327881 c-8.7774658,1.8079834-18.1190186,6.8308105-28.9295654,12.9581299 c-12.0916138,6.850708-21.8145142,11.1529541-38.3236084,10.8364258 c-16.0640869-0.3077393-38.0320435-5.0515137-74.5076294-16.2128906 c-30.1616211-9.230835-58.1829834,1.1955566-85.1461182,11.2307129 c-32.6453247,12.1522217-63.9047241,23.782959-102.7732544,2.5545654 c-28.4185181-15.5213623-51.6732178-23.5793457-73.5977173-25.6602783 c-22.7593994-2.1619873-44.4887695,1.9597168-69.1035156,10.7946777 c-26.2410278,9.4213867-46.6086426,15.300293-70.6762085,13.5097656 c-24.8257141-1.8469238-52.6395264-11.651001-92.9256897-33.6796875 c-35.8139343-19.5834961-78.1004028-1.5611572-114.7362366,14.0513916 c-31.4206848,13.3927002-59.1408234,25.2053223-84.7478333,11.1123047 c-37.5496979-20.6651611-120.240799,3.4963379-120.4794159,3.5639648L74.2704773,1335.3238525z"/></g><g id="change2_1"><path fill="#0b9672" clip-rule="evenodd" d="M334.7518616,964.6323242 c3.5510254,10.1101074-0.9488525,20.083252-6.3067017,31.9494629c-6.2835693,13.9213867-13.8200073,30.618042-9.8904419,52.6796875 c4.6397705,26.0517578-12.7064819,42.2979736-26.8096924,55.5029297 c-8.4729004,7.932373-15.6815796,14.6864014-15.3019409,21.1618652l-0.0010986,0.0002441 c1.1738892,19.9475098-39.8129272,45.0488281-41.9987793,46.3747559c-0.2369385,0.1601562-0.5083008,0.2786865-0.807251,0.3393555 c-0.4710083,0.095459-0.9362183,0.0321045-1.3457031-0.1477051l1.1386719,71.8447266l-14.2938843,13.2005615l-4.1025391-447.5393066 c-10.7177734-0.2958984-18.4112549-25.7808228-25.0284424-47.7182617 c-3.4049072-11.2900391-6.5170898-21.5982056-9.3117065-26.4430542c-2.996521-5.1931152-7.5917358-8.0147705-12.4441528-10.9910278 c-8.3380127-5.1178589-17.3739014-10.6618652-22.0570679-28.3203125 c-2.729126-10.2966309-8.3380737-19.1533813-14.5245972-26.1990356l-0.0011597-0.0003052 c-9.6495361-10.989624-20.4555664-17.4838867-24.0601807-18.2189331c-0.7333374-0.1009521-1.4052124-0.5604248-1.7374878-1.2852783 c-0.5183716-1.1234131-0.0276489-2.4578247,1.0977783-2.9762573c0.0908203-0.041748,31.7991943-15.317688,50.9093628,5.5829468 c6.5791626,7.1974487,13.8460083,11.1817017,21.1218262,15.171936 c12.4080811,6.8016968,24.8618164,13.6352539,34.9621582,35.7445068c4.3339233,9.489624,7.612793,21.4206543,9.8099365,33.7807007 l1.5386963-6.2139893l0.2956543,18.6531982c0.9848633,8.3108521,1.4841309,16.5140381,1.4841309,24.0056152 c0,5.6399536-0.2891235,10.8901367-0.8577881,15.5165405l5.4013672,340.7969971 c2.449585-7.9393311,6.0803833-14.1136475,9.336792-19.6420898c3.9899292-6.7714844,7.3706055-12.5133057,6.8364258-19.2830811 c-0.9042969-11.4187012,7.6408081-23.5043945,16.0905151-35.4500732 c7.1990967-10.1638184,14.3181152-20.2319336,14.8122559-28.8966064 c0.5878296-10.3095703,6.6113281-18.8687744,12.9987183-27.9522705c6.2689209-8.913208,12.9118042-18.3604736,14.5522461-30.1040649 c2.2687988-16.2592163,12.1304932-27.0612793,19.0148315-32.1689453c1.7284546-1.2808228,3.3068237-2.2282715,4.5473022-2.8216553 c1.2692261-0.6081543,2.4030762-0.8794556,3.263916-0.8331909c0.2628174,0.0042114,0.5302124,0.0578003,0.7885742,0.1616211 c0.7451782,0.2989502,1.2331543,0.815979,1.4570923,1.553833l0.0648804,0.2396851 c0.2572632,1.1987305-0.2166138,2.1315308-0.9212036,3.5279541 C332.8660583,942.395874,329.3697205,949.3146362,334.7518616,964.6323242z M1126.6303711,728.8209839 c-0.0231934-1.2345581-1.0480957-2.2180786-2.282959-2.1949463c-1.0673828,0.0217285-1.9450684,0.7872314-2.1503906,1.7907715 c-0.0112305,0.0620117-4.2832031,21.7640381-24.2509766,31.3905029c-3.8426514,1.854187-8.2584229,3.4802246-12.8869629,5.1798706 c-20.7071533,7.6176758-45.5616455,16.760437-50.9121094,56.0980835 c-3.7253418,27.4052124-6.9101562,37.760376-10.5630493,45.4629517l-0.3260498-65.3978882l6.7716675-57.1303711 c0.1201172-1.0339966-0.4807129-1.9887695-1.4063721-2.3540039l-19.7106323-9.0883789 c-6.1948242-22.1691895-16.5568848-48.8277588-32.7038574-62.5524902h0.0004883 c-15.4851074-13.1630859-27.7663574-17.2224121-38.2937012-16.656311 c-10.5605469,0.56604-19.0853271,5.7431641-27.3010254,11.059021c-5.0605469,3.2709351-8.2246094,5.7504883-10.7833862,7.7532959 c-5.2664795,4.1213989-7.8342896,6.1346436-20.7562866,9.3635864c-1.2026367,0.2990112-1.9320679,1.519165-1.6330566,2.7221069 c0.1731567,0.6947021,0.6515503,1.2303467,1.2579346,1.5033569c1.3182983,0.6470337,13.1729736,5.9961548,34.2744141,0.3091431 c10.131958-2.7322388,18.8056641-2.402832,25.5783691,0.5386963c6.8171387,2.9590454,11.7807617,8.6314087,14.4162598,16.5379028 c2.1848145,6.5548706,8.5026855,19.7772217,16.5869141,32.8839722 c6.1854248,10.0249634,13.4331055,20.0369873,20.7043457,27.0465698c3.7314453,3.5960083,7.5019531,6.4137573,11.1977539,8.109314 l0.0804443,489.1917114h-0.0010986c0,1.2346191,1.00354,2.2398682,2.2382812,2.2398682 c0.4333496,0,0.8377686-0.1241455,1.1812744-0.3365479l19.4103394-11.2005615 c0.722168-0.4143066,1.1248779-1.1724854,1.1248779-1.949585l-1.6430054-329.4779663 c5.4453735-3.024353,23.746521-15.7092896,31.5704956-52.8730469h-0.0006104 c7.2797852-34.5776978,21.3486328-49.4520264,36.8118896-65.7963867c3.4528809-3.6506348,6.9819336-7.3793335,10.2486572-11.0877686 c2.015625-2.2860718,3.8630371-4.3354492,5.5581055-6.217041 C1123.3505859,766.7001343,1127.3190918,762.2924805,1126.6303711,728.8209839z M731.7897949,862.8513184 c-0.005249-0.008606-0.0106812-0.017334-0.0159302-0.0259399c-3.805481-6.1924438-7.0817871-11.5255127-5.0126953-18.2507935 c3.6130981-11.7435303-5.5422974-23.8712158-14.8269043-36.1633911 c-7.5889282-10.0509644-15.274292-20.2248535-15.274292-29.5117188c0-19.7727661-16.9135742-26.4907227-35.7259521-33.9569092 c-3.1482544-1.2492065-6.3568726-2.5244141-9.6699219-3.9425659c-14.9290161-6.395813-18.6797485-24.3952637-20.1176758-31.3126221 c-0.3175659-1.5321045-0.5720215-2.7133789-1.0424805-3.5107422c-0.0969849-0.1776733-0.2182617-0.3421021-0.3626709-0.4882202 c-0.2612305-0.2772217-0.5821533-0.4749756-0.9821167-0.5906372h-0.0186157 c-1.5016479-0.4160156-2.4736328,0.180542-3.0010376,1.9005127l-0.5646973,1.8051147 c-1.5377197,4.7020874-3.7907715,11.5889893-0.5488892,31.0427246c1.769043,10.6300049,7.4761353,16.1134033,13.7032471,22.0935059 c6.7264404,6.4567261,14.1162109,13.5574341,17.0219116,29.1377563 c2.6873779,14.4105835,12.9089966,22.6724854,22.8282471,30.6873169 c11.2166748,9.0631714,22.024353,17.8000488,19.1428833,35.0946655l0.0011597,0.0003052 c-5.6593628,33.963623,30.7857666,57.7196655,33.618042,59.5089722l-5.4144897,341.5595703l14.2950439,13.2006836 l4.4265137-482.8238525l-10.5984497-42.802063L731.7897949,862.8513184z" fill-rule="evenodd"/></g><g id="change3_1"><path fill="#00d6bc" clip-rule="evenodd" d="M717.9899292,1124.833252 c7.3057251,12.4050293,16.5158691,28.0360107,9.975647,59.6518555c-0.246521,1.2099609-1.432251,1.991333-2.6439819,1.7459717 c-0.2989502-0.0606689-0.5703125-0.1790771-0.807251-0.3393555c-2.1859131-1.3259277-43.1726685-26.427124-41.9987793-46.3748779 l-0.0010986-0.0002441c0.3796387-6.4753418-6.8291016-13.2293701-15.3019409-21.1618652 c-14.1032104-13.204834-31.4494629-29.4510498-26.8096924-55.5029297 c3.9295654-22.0615234-3.6068726-38.7583008-9.8904419-52.6794434c-5.3595581-11.866333-9.8577271-21.8393555-6.3067017-31.949585 c5.3821411-15.317749,1.8858032-22.2365112,0.2786865-25.4163818c-0.7045898-1.3964233-1.1784668-2.3291626-0.9212036-3.5278931 l0.0648804-0.2397461c0.223938-0.737854,0.711853-1.2548218,1.4570923-1.553833 c0.2583618-0.1037598,0.5256958-0.1573486,0.7885742-0.1616211c0.8608398-0.0462646,1.9946899,0.2250977,3.263916,0.8331909 c1.2404785,0.5934448,2.8188477,1.5408936,4.5473022,2.8216553c6.8843384,5.1077271,16.7460327,15.90979,19.0148315,32.1690674 c1.6404419,11.744873,8.2833252,21.1907959,14.5522461,30.1040039c6.3873901,9.0834961,12.4108887,17.6425781,12.9986572,27.9521484 c0.4942017,8.6647949,7.6132202,18.7329102,14.8123169,28.8967285c8.449707,11.9458008,16.994812,24.0314941,16.0905151,35.4499512 C710.6193237,1112.3199463,714,1118.0617676,717.9899292,1124.833252z M1187.0262451,1007.1958008l-0.2149658-0.3161621 c-0.2380371-0.3221436-0.5544434-0.6165771-0.9385986-0.8651123l-0.1138916-0.0693359 c-1.810791-1.0872803-6.6948242-2.0421143-13.170166-1.4080811c-6.3552246,0.6193848-14.5100098,2.6976318-23.1531982,7.5585938 c-9.411499,5.2926025-19.4453125,13.9025879-28.4146729,27.5537109c-10.62146,16.1652832-22.564209,24.829834-33.0858154,32.4665527 c-15.1920166,11.0228271-27.5633545,20.0008545-29.8265381,45.3565674 c-0.934082,10.4711914-0.9904785,17.3338623-1.03125,22.4285889c-0.0461426,5.7995605-0.0766602,9.2177734-1.4237061,13.05896 c-1.9952393,5.6867676-6.980835,12.8944092-19.0736084,30.3796387l-3.1798096,4.5980225 c-31.9369507,46.2143555-24.7350464,66.5949707-13.5892944,98.1329346l0.5803223,1.6448975 c0.411377,1.1682129,1.6940918,1.7806396,2.8605957,1.3706055c0.6933594-0.2454834,1.1914673-0.7971191,1.3950806-1.4498291 c11.6104736-34.3249512,27.4873047-51.6846924,42.0366211-67.5959473 c10.84375-11.8575439,20.9741211-22.9367676,28.2481689-39.5311279c3.7845459-8.6401367,6.2886963-17.6499023,7.8427734-26.4285889 c1.8688965-10.5535889,2.3817139-20.821167,2.1273193-29.7327881c-0.3063965-10.7685547,6.9750977-16.3255615,15.1455078-22.5568848 c10.7700195-8.2185059,22.9541016-17.5141602,23.8104248-40.2301025 c1.0887451-28.8765869,25.782959-41.7635498,36.8433838-47.5343018 C1185.5776367,1011.4819336,1188.5583496,1009.9206543,1187.0262451,1007.1958008z M333.2174988,693.4078369 c-0.5274658-1.7199707-1.4993896-2.3164673-3.0010376-1.9004517h-0.0186157 c-0.3999634,0.1156006-0.7209473,0.3133545-0.9821167,0.5905762c-0.1444092,0.1461182-0.265686,0.3105469-0.3627319,0.4882812 c-0.470459,0.7973633-0.7248535,1.9785767-1.0424805,3.5106812c-1.4378662,6.9173584-5.1885986,24.9168091-20.1176758,31.3126831 c-3.3129883,1.4181519-6.5233154,2.6932983-9.6698608,3.9425049c-18.8135376,7.4662476-35.7271118,14.1841431-35.7271118,33.9569092 c0,9.2868652-7.6842041,19.4608154-15.2731323,29.5117188c-9.2846069,12.2921753-18.4400635,24.4198608-14.8269653,36.1634521 c2.0691528,6.7252197-1.2071533,12.0582886-5.0126343,18.2507324c-6.7872925,11.0415649-15.0853271,24.5425415-2.5706177,52.6536255 c0.5026245,1.1279297,1.8299561,1.6347656,2.9575806,1.1322021l0.265686-0.1300659 c0.111145-0.067688,39.6769409-24.3388672,33.7978516-59.62146l0.001709-0.0002441 c-2.8814697-17.2946167,7.9262085-26.0314941,19.1428833-35.0947266 c9.9192505-8.0147705,20.1408691-16.2766724,22.8282471-30.6873169 c2.9057007-15.5803223,10.2949219-22.6809692,17.0202026-29.1377563 c6.2282715-5.9801025,11.9353027-11.4634399,13.7043457-22.0934448c3.2419434-19.4537964,0.9888916-26.3406372-0.5488281-31.0427856 L333.2174988,693.4078369z" fill-rule="evenodd"/></g><g id="change1_2"><path fill="#f29051" clip-rule="evenodd" d="M736.0232544,753.9507446 c0.0146484,20.3808594-2.6467896,37.6292114-10.663269,39.024292l-0.1286621,0.0188599 c-0.8692627,0.1069336-1.6911621-0.2975464-2.1503296-0.9877319c-0.0925293-0.1398926-32.7615967-49.2757568-29.340271-99.46875 l0.0005493-0.0005493c0.9431763-13.8504639,3.6593628-21.9533081,7.2205811-25.8755493 c2.3973999-2.6425171,5.1711426-3.5654297,8.097168-3.1465454c2.661438,0.3827515,5.3488159,1.9393921,7.8861694,4.3309326 c6.4595947,6.0869751,12.4091797,18.0944824,14.3965454,29.5218506l0.2149048,1.2794189 C733.7803345,712.0210571,736.0102539,734.5029297,736.0232544,753.9507446z M684.3737183,1007.2626953 c-3.0241699-2.284668-5.7561035-2.7712402-8.1766968-1.9626465c-2.328064,0.7785645-4.1489868,2.7382812-5.5281982,5.4182129 c-2.8233643,5.4820557-3.9526978,14.4527588-3.734436,21.7121582c0.3266602,10.8452148,7.1427612,33.7287598,19.1660767,57.5233154 c9.0302124,17.8751221,21.019165,36.3526611,35.4224243,50.7562256c0.8766479,0.876709,2.3004761,0.876709,3.177063,0 c0.472168-0.472168,0.6887817-1.1047363,0.6526489-1.7227783l0.0011597-0.0002441 c0.0445557-3.0932617,0.3711548-50.3647461-22.6612549-102.4638672 C695.2801514,1019.7570801,689.2131958,1010.9174805,684.3737183,1007.2626953z M784.2418823,814.527771l-0.0006104-0.0005493 c-2.7815552-2.0059204-6.1188354-2.3277588-10.0478516-0.557312c-2.078125,0.9358521-4.1980591,2.5488892-6.3078003,4.7266235 c-9.6625366,9.9744873-20.0527954,32.9257202-26.3290405,57.0076904 c-6.2965698,24.1671143-8.4926147,49.6542358-1.7374878,64.6571655c1.4165039,3.1437988,3.2244263,5.8529053,5.4645386,8.0221558 c2.5689087,2.4896851,5.7143555,4.0435181,9.5457764,3.9555054c3.175354-0.0708008,6.7670288-1.303894,10.800354-4.1286621 c14.0422974-9.8329468,25.8348999-58.5817871,27.0454712-94.317627c0.3147583-9.3043213-0.069397-17.7639771-1.3024902-24.461853 C790.0673828,822.3446045,787.7494507,817.0549927,784.2418823,814.527771z M989.322937,729.0130615 c6.3439941,29.604248,18.8642578,55.8884888,33.2839355,52.7994385c0.9138184-0.1937866,1.5796509-0.9214478,1.7415161-1.7879639 c4.0473633-16.7271118,9.8328857-55.9925537,5.2303467-86.1628418h0.0006104 c-3.0084229-19.7208862-10.4671021-35.710144-25.6764526-39.7102661 c-8.767334-2.3074341-14.1973877,3.5440063-16.9525146,14.0152588c-1.920166,7.3102417-2.5170898,17.0218506-2.0302734,27.673584 C985.4064331,706.4169922,986.9559937,717.9599609,989.322937,729.0130615z M1018.8319702,940.4883423 c0.2019043-0.3511353,0.2972412-0.7352905,0.307373-1.1135254c0-4.4262695-5.392334-43.831604-16.68396-74.6503906 l0.0006104,0.0003052c-6.260498-17.0910034-14.4168701-31.6866455-24.6497803-36.7337036 c-3.3416748-1.6477661-6.4206543-2.1244507-9.1627197-1.6000977c-3.6474609,0.6989136-6.5717773,3.1118774-8.6444092,6.8521729 c-1.9078369,3.4413452-3.0992432,8.0466919-3.4545898,13.4547729c-0.8173828,12.3745117,2.6862793,29.3326416,11.8416748,46.4064331 c4.9608154,9.2507935,11.5861816,18.5554199,20.0749512,27.1881714 c7.5600586,7.6899414,16.6174316,14.8656006,27.3166504,21.0219727 C1016.8479614,941.9296265,1018.2164917,941.5584717,1018.8319702,940.4883423z M1088.9813232,903.510376 c-2.1413574-3.6870117-5.3560791-5.6046753-9.3128662-5.8790894c-3.6259766-0.2496338-7.8444824,0.9603882-12.3515625,3.5222778 c-12.8024902,7.2766724-28.6774902,25.9663086-40.1711426,53.1243286 c-3.9786987,9.4053345-8.2026978,21.3468628-10.4122925,33.0497437c-1.7059326,9.0302734-2.2198486,17.9620361-0.5302734,25.5710449 c0.2657471,1.2060547,1.4627686,1.9697266,2.6688232,1.7041016c0.1894531-0.0402832,0.3666992-0.1052246,0.5358887-0.1848145 c0.1646729-0.0837402,57.8609009-28.9311523,70.0884399-81.6570435h0.0006104 C1092.7805176,918.5957031,1092.1640625,908.9892578,1088.9813232,903.510376z M233.7267761,779.4035034 c0.8675537,0.1068726,1.6906128-0.2976074,2.1486816-0.987793c0.0936279-0.1398926,32.7626953-49.2757568,29.3413696-99.468689 v-0.0006104c-0.9431763-13.8504639-3.6593628-21.9532471-7.2205811-25.8754883 c-2.3973999-2.6425781-5.1711426-3.5668335-8.097168-3.1466064c-2.661438,0.3827515-5.3488159,1.9393921-7.8861694,4.3309326 c-6.4595947,6.0869751-12.4091797,18.0945435-14.3965454,29.5219116l-0.2149048,1.2793579 c-2.2236938,13.3741455-4.4536133,35.855957-4.4666138,55.303833c-0.0146484,20.3807983,2.6467896,37.6292114,10.6633301,39.024231 L233.7267761,779.4035034z M282.7599182,991.7097168c-2.4205322-0.8085938-5.1525269-0.3221436-8.1766968,1.9624023 c-4.8394775,3.6549072-10.9063721,12.4943848-18.3187256,29.260498 c-23.0318604,52.0991211-22.7058105,99.3706055-22.6624146,102.4638672l0.0005493,0.0002441 c-0.0343628,0.618042,0.182251,1.2507324,0.6544189,1.7229004c0.8765869,0.8764648,2.300415,0.8764648,3.177002,0 c14.4033203-14.4036865,26.3922729-32.8812256,35.4224854-50.7563477 c12.0233154-23.7944336,18.8394165-46.6779785,19.1660156-57.5231934c0.2183228-7.2595215-0.9110107-16.2302246-3.734375-21.7121582 C286.9089661,994.447876,285.0879822,992.4881592,282.7599182,991.7097168z M163.3320007,811.2782593 c-2.6049805-1.5524292-5.0718384-2.5562134-7.3231812-2.9187012c-4.2545166-0.6845093-7.3926392,0.4967041-9.5559692,3.1581421 l-0.0005493,0.0003052c-2.7263184,3.3547363-3.5843506,9.0646362-2.996521,16.2476807 c0.5562134,6.7872925,2.3900757,15.0548096,5.1209106,23.9550171 c10.4873047,34.1833496,34.5825195,78.1708984,50.7029419,84.0037842c4.6313477,1.6737061,8.4193115,1.9277954,11.5038452,1.1682129 c3.7219238-0.9141235,6.3529663-3.2348633,8.184021-6.3078003c1.5975342-2.6775513,2.637207-5.7634888,3.1843872-9.1687012 c2.6083984-16.2462158-6.1577759-40.2791138-18.536499-61.9681396 C191.2772522,837.8369141,175.2605896,818.3876953,163.3320007,811.2782593z" fill-rule="evenodd"/></g><g id="change4_1"><path fill="#ffca6f" clip-rule="evenodd" d="M713.6141357,751.5482178 c-2.0939331-16.2462158-2.9660645-33.6694946-2.1994019-47.6166992c0.8235474-14.9219971,3.7027588-26.1744995,9.2078857-28.6179199 c1.5349121-0.6802979,3.0354614-1.0599365,4.4868774-1.1524658h0.0005493 c3.5324707-0.2225342,6.7224731,1.1682739,9.5599365,3.8759766c2.592041,2.4735718,4.894165,6.0925903,6.8899536,10.5910645 c5.0628662,11.4042358,8.2878418,28.7668457,9.4747314,47.4607544c0.5686035,8.9608154,0.5917358,17.1634521,0.1889648,24.4979858 c-0.7034302,12.8034668-2.7280273,23.0177612-5.4661865,30.1096802c-2.9920044,7.7561646-7.0315552,12.055481-11.3927002,12.3369751 c-0.2730103,0.0186157-0.5618286,0.0172119-0.8607788,0.0042114c-3.9713135-0.2180176-7.4168701-4.180542-10.28479-10.6415405 C719.0571899,783.0196533,715.7109375,767.8477783,713.6141357,751.5482178z M722.835022,1065.0224609 c-4.559082-15.0014648-11.539917-26.3115234-21.8235474-27.8713379c-1.0498047-0.1572266-2.147583-0.2122803-3.2797241-0.1558838 c-3.8269043,0.1934814-6.3754883,3.0007324-7.9786987,6.9520264c-1.8005981,4.4406738-2.413269,10.5031738-2.3105469,15.4348145 c0.1630249,7.7823486,5.1311035,25.8856201,13.6191406,45.0821533c6.354126,14.3660889,14.7096558,29.449707,24.5352173,41.4171143 c0.7841187,0.9545898,2.1966553,1.0919189,3.151123,0.3078613c0.444519-0.3652344,0.713562-0.8693848,0.7942505-1.3964844 l0.0005493-0.0002441c0.9894409-6.5,1.366272-18.3259277,0.6887817-31.777832 C729.4418335,1097.3649902,727.2102051,1079.4317627,722.835022,1065.0224609z M763.3569946,843.9134521 c-2.8464966-4.9460449-6.0438232-7.3071289-9.3720703-7.5598755c-3.5657349-0.2716064-6.9650269,1.8847046-10.0235596,5.8746338 c-2.729187,3.5611572-5.2783813,8.7021484-7.4749756,14.8946533c-8.5315552,24.0646973-11.9934692,64.9330444-0.2352295,91.1622314 c1.7893066,3.993042,3.932373,7.5742798,6.4680176,10.5563965c2.4205933,2.8493042,5.2044678,5.1669312,8.3859863,6.7974854 c1.1005859,0.5661011,2.456665,0.1300049,3.0213623-0.97052c0.111145-0.2166138,0.1833496-0.446228,0.2211304-0.6743774h-0.0005493 C754.8265991,961.4381104,773.5148315,861.5488281,763.3569946,843.9134521z M993.8042603,765.0374146l0.0563965,0.1156006 c3.0880127,6.7698364,6.527832,12.4611206,10.1104736,16.2750244c3.9973145,4.2545166,8.2636719,6.286438,12.5942383,5.1585083 l0.0998535-0.0288086c0.5302734-0.1416016,1.03125-0.3220825,1.5004883-0.5358887 c5.9349976-2.6947632,8.3815308-12.6864624,8.8926392-24.5975342c0.7524414-17.5098267-2.4521484-39.65802-4.7007446-47.0910034 c-5.6387939-18.640564-13.5656738-29.9567871-20.9018555-34.0651855l-0.0010986-0.0003052 c-3.4862061-1.9495239-6.90979-2.3810425-10.019165-1.3052979c-3.0494385,1.0543213-5.6662598,3.5250854-7.5927734,7.3880615 c-4.6352539,9.2927856-5.4831543,27.4902954,1.4746094,54.1758423 C987.609314,749.321167,990.5272827,757.8312378,993.8042603,765.0374146z M1015.0929565,940.7089233 c-7.3852539-9.9801636-13.2727051-19.3598633-17.8781738-28.0490723 c-5.1247559-9.6681519-8.6832275-18.5220947-10.9750977-26.4313965 c-4.8824463-16.8543701-4.0018311-29.5653687-0.3149414-36.9937744c1.5292969-3.0859375,3.5640869-5.3375854,5.8961182-6.6734009 c2.394043-1.3718872,5.0758057-1.7833862,7.8518066-1.1696777l0.2036133,0.0389404 c4.5738525,1.0904541,9.3477783,5.0645752,13.3201904,12.2171021c4.291748,7.7246094,7.1437988,19.1864014,8.1535645,34.2947998 v0.0003052c0.9359131,14.0397339,0.3018799,31.2996826-2.2281494,51.7033691 c-0.0794678,0.5878296-0.3813477,1.1465454-0.8952637,1.5264893 C1017.234314,941.9104614,1015.8292847,941.7011719,1015.0929565,940.7089233z M997.3208618,843.3631592l-0.1500244-0.2642822 l-0.0445557,0.2600708L997.3208618,843.3631592z M1057.0394287,929.4014282 c-3.263916-3.288208-7.4952393-4.7613525-12.0426025-4.1995239c-4.3452148,0.5446777-8.9533691,2.9880981-13.1921387,7.5297241 c-10.6864624,11.444519-19.4492798,36.8969727-15.6538696,79.8782349c0.1054688,1.2347412,1.1970215,2.1503906,2.4317627,2.0447998 c0.4591064-0.0389404,0.8739014-0.2137451,1.2088623-0.4822998c12.4425659-8.7974854,21.7254028-17.9084473,28.4360962-26.8299561 v-0.0003662c7.8647461-10.4567871,12.2111816-20.6696167,14.0004883-29.8555298 C1064.8032227,944.2641602,1062.1513672,934.5539551,1057.0394287,929.4014282z M213.1995544,777.1061401 c2.9920044,7.7561646,7.0315552,12.055542,11.3926392,12.3370361c0.2730103,0.0186157,0.5618286,0.0171509,0.8608398,0.0042114 c3.9713135-0.2180176,7.4168701-4.180603,10.28479-10.6416016c4.1619263-9.3765259,7.5082397-24.5484619,9.6049805-40.8479614 c2.0939941-16.2462769,2.9660645-33.6694946,2.1994629-47.6167603c-0.8236084-14.9219971-3.7027588-26.1744995-9.2078857-28.6179199 c-1.5349121-0.6802979-3.0371704-1.0599365-4.4868774-1.1524658h-0.0006104 c-3.5324097-0.2225342-6.7224121,1.1682739-9.5598755,3.8759766c-2.592041,2.4736328-4.894165,6.0926514-6.8899536,10.5910645 c-5.0628662,11.4042969-8.2890015,28.7668457-9.4747314,47.4607544c-0.5686035,8.9608154-0.5917358,17.1635132-0.1889648,24.4979858 C208.4367981,759.7999878,210.4613342,770.0142212,213.1995544,777.1061401z M261.2251892,1023.404541 c-1.1321411-0.0563965-2.2298584-0.0014648-3.2796631,0.1560059c-10.2836914,1.5596924-17.2644653,12.869751-21.8235474,27.8713379 c-4.3752441,14.4091797-6.6068115,32.3406982-7.3966064,47.9920654c-0.6774902,13.4520264-0.3006592,25.277832,0.6887817,31.77771 v0.0002441c0.0806885,0.5272217,0.3497925,1.03125,0.7943115,1.3964844c0.9544067,0.7841797,2.3669434,0.6467285,3.151062-0.3076172 c9.8256226-11.9675293,18.1817017-27.0511475,24.5340576-41.4172363 c8.4898071-19.1965332,13.4573364-37.2998047,13.6192017-45.0822754c0.1043701-4.9316406-0.5082397-10.9941406-2.3088379-15.4346924 C267.6007385,1026.4052734,265.0520935,1023.5980225,261.2251892,1023.404541z M203.6650085,840.1872559 c-3.736084-5.4066772-7.5353394-9.7042847-11.0993652-12.4309082c-3.9943848-3.0543213-7.8370972-4.2485352-11.2092896-3.0571899 c-3.1483154,1.1121826-5.617981,4.2240601-7.0778809,9.7421265 c-5.2061157,19.6746216,38.8809814,111.2354126,40.0103149,113.5778809h0.0006104 c0.0953369,0.2106934,0.2250366,0.4129028,0.3897705,0.5934448c0.8314819,0.9155273,2.2541504,0.9818115,3.1697388,0.1486206 c2.6445312-2.4030762,4.7294312-5.3677368,6.3224487-8.7484131c1.6708984-3.5408936,2.8041992-7.5570679,3.4918213-11.8778076 C232.1748962,899.7466431,218.1766052,861.1948242,203.6650085,840.1872559z" fill-rule="evenodd"/></g><g id="change2_2"><path fill="#0b9672" clip-rule="evenodd" d="M736.631958,1206.1916504 c-25.9765015,60.7999268-7.4185791,98.7974854-6.1662598,101.237793c0.3294678,0.7409668,1.0515137,1.2779541,1.9162598,1.3284912 c0.0547485,0.0028076,19.5925293,1.7718506,43.9314575-24.8863525 c12.1378174-13.2945557,11.7130737-28.8027344,11.2826538-44.4310303 c-0.4230957-15.385376-0.850708-30.9039307,11.6899414-43.7189941 c23.3139038-23.8204346,19.6743164-68.4869385,16.4961548-107.4705811 c-0.4546509-5.6015625-0.9042969-11.0891113-1.2460938-16.1726074 c-2.7003784-39.9484863,11.8778076-78.2058716,12.723938-80.3892822c0.3305664-0.7293701,0.2600708-1.6102295-0.2583618-2.2902222 c-0.7507935-0.9835205-2.1588135-1.1710815-3.1437378-0.4202881c-11.4592285,8.7628174-32.1229858,28.3276978-47.7103882,49.7597046 c-10.7687378,14.8095703-19.164917,30.5892334-20.5802612,44.5046387 c-0.9301758,9.1542969-0.8015747,17.9429932-0.668457,27.1635742c0.3508911,24.1282959,0.7451782,51.2905273-18.2662964,95.7849121 L736.631958,1206.1916504z M742.0101318,983.857666c2.1690063-0.7062988,36.3786011-12.5609741,57.4642944-63.6116943 c11.6149292-28.1240234,29.2821655-39.6380005,44.7426147-49.7092285 c12.8570557-8.3772583,24.2593384-15.8087769,29.9996948-30.6817017 c6.1273193-15.8764648,10.845459-26.2943726,15.4592896-33.5264893c4.4784546-7.0169067,8.8756714-11.0228882,14.4586182-14.2115479 c1.0757446-0.6094971,1.4525757-1.9799805,0.8416138-3.0543213c-0.4490356-0.7942505-1.3126831-1.2058105-2.1678467-1.1248169 c-0.1026611,0.0101318-36.9082642,3.4616089-57.7299805,30.0693359l-0.2555542,0.326355 c-19.4926758,24.9035645-25.1043701,32.0750122-42.9188232,31.9610596 c-11.5687256-0.0750122-15.7684326,12.6937866-20.2491455,26.3305054 c-3.6983032,11.2525024-7.6159668,23.1607666-15.7943726,27.2894287 c-10.6633301,5.3821411-19.9648438,15.685791-25.003418,30.5818481 c-4.2714233,12.6373901-5.4876709,28.6035767-1.8440552,47.6844482c0.2312622,1.2159424,1.407959,2.0130005,2.6242065,1.7819824 l0.3723145-0.1054688L742.0101318,983.857666z M1015.6978149,1237.8580322 c0.1849976,15.5084229,3.1437378,31.5898438,8.8711548,48.2304688c0.1917725,0.4476318,0.239624,0.9575195,0.1054688,1.4613037 c-0.3193359,1.1955566-1.5507812,1.9078369-2.7466431,1.588501c-0.1528931-0.0402832-53.6600342-14.1726074-66.7484131-59.6014404 c-5.6494751-19.6037598-4.6544189-39.4530029-3.7433472-57.6690674 c1.1467896-22.8933105,2.1588135-43.1385498-10.6779785-55.9750977 c-15.0565186-15.0561523-18.0761719-34.894165-21.7293701-58.9182129 c-2.3162231-15.2512207-4.9026489-32.2384033-11.0197754-50.5915527 c-16.1582642-48.4744263,7.177124-72.5983887,7.2436523-72.6675415c0.5821533-0.6035767,1.4785156-0.8591309,2.326416-0.5790405 c1.1710815,0.3869629,1.81073,1.6550903,1.4237671,2.8261719c-0.0214233,0.0620728-7.7953491,21.1951294,31.6852417,61.4034424 c21.0496216,21.4393921,23.6890869,39.435791,26.3014526,57.277832c2.4335327,16.605957,4.850708,33.0817871,23.1604614,52.1092529 c19.4345703,20.1987305,28.0535889,34.2009277,30.4403076,46.9985352 c2.4104004,12.9261475-1.5146484,24.2452393-7.1105957,39.2408447c-5.3708496,14.3934326-7.9656982,29.3529053-7.7824097,44.8656006 H1015.6978149z" fill-rule="evenodd"/></g><g id="change3_2"><path fill="#00d6bc" d="M1015.0739136,997.7631836c-0.5861816,0.1154785-1.210083,0.2092285-1.8688965,0.2744141 c-8.4406738,0.8562012-17.7479248-3.6594238-25.4914551-11.4228516 c-7.5759277-7.5932617-13.7302246-18.3532104-16.098877-30.1935425c-0.3334961-1.6765137-0.5980225-3.4196167-0.7796631-5.2145996 c-1.4412842-14.210083-7.8167725-19.1936646-16.2896729-25.8148804 c-6.3986816-5.0010376-13.9199219-10.8798828-21.5273438-21.8162231 c-10.0061035-14.3846436-8.6444092-28.6207275-7.2770996-42.9016113c1.144043-11.9384766,2.2902832-23.9203491-3.736084-35.6376343 c-6.2095947-12.0772095-7.3011475-22.5281372-6.3178711-30.3883667c0.5544434-4.4248657,1.7774658-8.071228,3.1279297-10.7543945 c1.4700928-2.9187012,3.2233887-4.842041,4.5635986-5.5293579c0.5369873-0.2772827,1.0859375-0.4202881,1.6201172-0.4244995 l0.3944092,0.0129395c2.552002,0.3193359,3.1380615,3.2089233,4.0288086,7.5872192 c1.4440918,7.0891113,3.9526367,19.3886108,14.2910156,27.3224487c2.8363037,2.1735229,5.5598145,4.0060425,8.1563721,5.7476807 c12.6156006,8.4697876,22.3651123,15.0159302,26.788208,45.909729c4.2573242,29.7329102,5.9875488,31.4353638,21.1534424,46.3503418 c3.0428467,2.9937134,6.6141357,6.5040894,10.8223877,10.835022v-0.0002441 c26.1411743,26.8979492,7.2612305,71.9758911,6.1188965,74.6229858 C1016.4920044,997.0424805,1015.8743286,997.6057129,1015.0739136,997.7631836z M1021.6242065,803.1257935 c0.2121582-0.0592041,0.4073486-0.1489258,0.5861816-0.2600098c2.2439575-1.253479,42.2476196-24.220459,42.6216431-67.4312134 l0.0004883,0.0002441c0.0839844-9.4967041,1.0554199-17.4060059,2.7178955-24.2915039 c1.6539307-6.8377686,3.9989014-12.6807861,6.8380127-18.0745239c5.8255615-11.0632324,12.439209-20.1625366,18.5422363-28.5614624 c17.7744141-24.4545288,31.3851318-43.1859741,11.7971191-87.6862793c-0.4980469-1.1324463-1.8237305-1.6477661-2.9575195-1.1496582 c-0.6741943,0.2961426-1.1293945,0.885376-1.2822266,1.5524292c-6.998291,30.4868164-18.4243164,41.0228882-30.6123047,52.2609863 c-8.8266602,8.1361084-18.0429688,16.6332397-26.4058838,32.8563232 c-8.2325439,15.9602661-8.3582764,27.5057983-8.4824219,39.1511841c-0.0869141,8.3022461-0.1793213,16.6633911-3.4315186,26.7318726 c-2.4853516,7.692688-5.3876953,13.7982788-8.0379028,19.3668213c-7.0891113,14.9003296-12.4470215,26.1615601-4.6589355,53.9823608 C1019.1940308,802.7633667,1020.4328003,803.4608765,1021.6242065,803.1257935z M159.4831238,906.6555176 c21.0856934,51.0507202,55.2953491,62.9053955,57.4642944,63.6116943l0.0006104-0.0003052l0.3723145,0.1054688 c1.2161865,0.2310181,2.3928833-0.56604,2.6242065-1.7819824c3.6435547-19.0808716,2.4273071-35.0470581-1.8440552-47.6844482 c-5.0386353-14.8959961-14.3401489-25.199707-25.003418-30.5818481 c-8.1784058-4.1286621-12.0961304-16.0369263-15.7944336-27.2894287 c-4.4806519-13.6366577-8.6804199-26.4055176-20.2490845-26.3304443 c-17.8144531,0.1138916-23.4262085-7.0575562-42.9188843-31.9611206l-0.2554932-0.326355 c-20.8217163-26.6077271-57.6273842-30.0592041-57.7300453-30.0693359c-0.8551636-0.0809326-1.718811,0.3305664-2.1678467,1.1248169 c-0.6109009,1.0743408-0.2341309,2.4448242,0.8416748,3.0543213c5.5829468,3.1886597,9.9801064,7.1946411,14.4585609,14.2115479 c4.6138306,7.2321167,9.3320312,17.6500244,15.4592896,33.5264893 c5.7403564,14.8729248,17.1426392,22.3044434,29.9997559,30.6817017 C130.2009583,867.0175171,147.8681946,878.5314941,159.4831238,906.6555176z M222.3250427,1192.6005859 c-19.0114746-44.4943848-18.6171875-71.6564941-18.2662964-95.78479c0.1331177-9.2205811,0.2617798-18.0093994-0.668457-27.1636963 c-1.4153442-13.9152832-9.8114624-29.6950684-20.5802612-44.5045166 c-15.5879517-21.4320068-36.2516479-40.9969482-47.7120361-49.7596436c-0.9838257-0.7509766-2.3918457-0.5633545-3.1426392,0.420166 c-0.5184326,0.6800537-0.5889282,1.5609131-0.2583618,2.2902832c0.8461304,2.1833496,15.4243164,40.4406738,12.723938,80.3892822 c-0.3417969,5.083374-0.7914429,10.5710449-1.2460938,16.1726074c-3.1781616,38.9836426-6.817749,83.6500244,16.4961548,107.4705811 c12.5406494,12.8150635,12.1130371,28.3336182,11.6899414,43.7189941 c-0.4304199,15.6282959-0.8551636,31.1364746,11.2827148,44.4309082 c24.3388672,26.6582031,43.8766479,24.8891602,43.9313965,24.8864746c0.8647461-0.0505371,1.586792-0.5876465,1.9162598-1.3286133 c1.2523193-2.4401855,19.8091431-40.4377441-6.1662598-101.2376709V1192.6005859z M1227.0213623,853.598877 c-0.7164307,0-1.3572998,0.3378906-1.769043,0.8622437c-1.3115234,1.3504639-14.1448975,13.5647583-55.9073486,20.5252686 c-9.3625488,1.5583496-17.7089844,3.1538696-25.1118164,4.8969727c-7.4816895,1.7620239-14.0579834,3.6884155-19.8186035,5.8948975 c-16.0556641,6.1532593-25.3312988,18.1453247-35.7214355,31.5797729 c-7.8907471,10.2041016-16.4527588,21.2730103-29.1479492,31.0396118 c-11.244873,8.654541-22.7543945,17.9981079-31.4077148,32.7192993 c-8.6326294,14.6850586-14.3181763,34.6036377-13.8618774,64.2888184c0.0147705,1.2348633,1.03125,2.2253418,2.2661133,2.2124023 l0.2972412-0.0187988c0.161377-0.0246582,56.624939-8.036377,76.6185913-50.717041h-0.0004883 c9.6291504-20.5540771,17.2006836-34.5187988,28.196167-45.3756104 c10.9881592-10.8511353,25.5489502-18.7618408,49.1877441-27.2561646 c24.4821777-8.7960815,39.0631104-20.5266724,47.5372314-32.7091064 c8.5546875-12.3008423,10.8900146-25.0234375,10.8900146-35.6954346 C1229.2681885,854.6069336,1228.2618408,853.598877,1227.0213623,853.598877z M851.9915161,661.4371338 c-0.0908203-0.041687-31.7991943-15.317688-50.9094238,5.5830078c-6.5791626,7.1973877-13.8459473,11.1817017-21.1217651,15.171875 c-12.4080811,6.8016968-24.8618774,13.6352539-34.9621582,35.7445679 c-8.6793213,19.0043945-13.128418,47.8000488-13.128418,70.2254639c0,8.6646729,0.670166,16.4369507,2.0133057,22.383728 c1.4570312,6.4522095,3.8313599,10.9405518,7.1567993,12.4596558c0.8591309,0.3929443,1.7616577,0.5979614,2.6975098,0.5979614 c10.8161621,0,18.5596313-25.6661987,25.2155151-47.7320557c3.4049683-11.2900391,6.5171509-21.5982056,9.3117065-26.4429932 c2.996521-5.1931763,7.5917358-8.0148315,12.4441528-10.9910278c8.3380737-5.1178589,17.3739014-10.6619263,22.0571289-28.3203735 c2.729126-10.2966309,8.3380127-19.1533813,14.5245972-26.1990356l0.0010986-0.0003052 c9.6495972-10.989624,20.4556274-17.4838867,24.0602417-18.2189331c0.7333374-0.1009521,1.4052124-0.5604248,1.7374268-1.2852783 C853.607666,663.289978,853.1168823,661.9555664,851.9915161,661.4371338z"/></g><g id="change5_1"><path fill="#7959a4" clip-rule="evenodd" d="M725.453064,1363.019165l-0.182251,31.3182373 c-0.019165,3.126709-2.569458,5.6625977-5.6957397,5.6625977H559.2675171c-3.1268311,0-5.6478271-2.5358887-5.6292114-5.6625977 l1.2404785-213.2371826c0.0175171-3.1265869,2.569519-5.6624756,5.6958008-5.6624756l104.072937,0.0041504l-0.0005493,0.0003662 l0.3756714,0.0172119c3.1138916,0.2078857,5.4543457,2.9025879,5.229248,6.0161133l-12.2861938,163.6811523l62.6800537,12.2592773 C723.3793945,1357.8146973,725.47052,1360.1713867,725.453064,1363.019165z M471.4092712,1357.4160156l-59.8510742-12.2592773 l50.0497437-163.6811523c0.9442749-3.1135254-0.7756348-5.8082275-3.8415527-6.0161133l-0.3712158-0.0172119l0.0005493-0.0003662 l-104.072937-0.0041504c-3.1262817,0-6.2615967,2.5358887-7.0010986,5.6624756l-50.4384155,213.2371826 c-0.739502,3.126709,1.1970825,5.6625977,4.3239136,5.6625977H460.514679c3.1262817,0,6.2615967-2.5358887,7.0010986-5.6625977 l7.4084473-31.3182373C475.5988464,1360.1713867,474.0520935,1357.8146973,471.4092712,1357.4160156z" fill-rule="evenodd"/></g><g id="change1_3"><path fill="#f29051" clip-rule="evenodd" d="M675.4405518,1241.4030762 c-0.1759644,2.3901367-1.7836914,4.5446777-4.2127075,5.2912598c-20.7185059,6.4291992-41.1526489,9.5140381-61.2940674,9.2581787 c-20.2090454-0.2584229-40.0407715-3.8686523-59.4769897-10.8452148c-2.2930908-0.8187256-3.9425659-3.0007324-3.9628296-5.5755615 c-0.9544678-97.8212891-4.7469482-195.6958008-11.3650513-293.6135864 c-2.6005859-38.46698-5.6489258-76.9321289-9.1295776-115.3950195 c-10.4907837,143.5620728-24.0431824,223.0962524-75.8963318,420.0198364 c-0.6842651,2.6008301-2.9852295,4.3481445-5.5395508,4.4522705c-18.5319824,1.7315674-39.8647461,1.1466064-60.5488281-1.7459717 c-19.5953369-2.7423096-38.7167969-7.5699463-54.4818726-14.4827881c-2.6400146-1.1496582-4.02771-3.9786377-3.4658813-6.6890869 c29.605957-188.2426758,28.9397583-294.2823486,28.0603027-434.1862183 c-0.2972412-47.30896-0.6193848-98.4882812,0.1918335-157.9842529c0.0360718-3.2954712,2.7421265-5.9366455,6.0393066-5.9005127 l0.7479858,0.0504761l0.0006104-0.0003052l145.5543823,20.4993896 c-11.7491455-11.6750488-18.8660278-21.7080688-21.4827881-30.111145 c-2.7133179-8.7137451-1.0717773-15.8592529,4.7999878-21.4552002c5.0053101-4.7683716,13.1661987-7.9772949,24.3777771-9.6467896 h0.0011597c27.2259521-4.0578613,75.0790405,0.4837646,141.8392334,13.2062988 c2.4854736,0.3813477,4.5591431,2.3148193,4.9934692,4.928894c16.3314209,96.3424072,24.1425781,196.7021484,25.7457886,301.6167603 C688.5346069,1017.9560547,683.9348755,1127.1870117,675.4405518,1241.4030762z" fill-rule="evenodd"/></g><g id="change4_2"><path fill="#ffca6f" d="M645.7325439,328.4236755c-5.8948975-18.9266052,4.6702271-39.0530396,23.5965576-44.947937 c18.9262695-5.8948975,39.0518799,4.6702271,44.946228,23.5968018c3.9915771,12.690979,8.7830811,24.9599915,14.0698853,36.9951782 c5.4227905,12.3485718,11.5917969,24.9413757,18.0412598,37.6625061 c24.5109253,48.3401794,64.2166138,90.4258423,97.0064087,125.1798401 c50.5466919,53.5764465,88.7174072,94.0332947,60.6469727,140.8771667 c-10.1606445,16.9885864-32.1720581,22.520813-49.1606445,12.3601074 c-16.9869385-10.1592407-22.520813-32.1717529-12.3601685-49.1589355 c0.1658936-0.2772827-22.0097046-23.7889404-51.3787231-54.9179688 c-35.9696045-38.1245117-79.5230713-84.2869568-108.8035278-142.0355835 c-6.8206177-13.4519348-13.4765015-27.0714111-19.7296143-41.3117065 c-6.3930054-14.5522156-12.1480103-29.269165-16.8757935-44.299469H645.7325439z"/></g><g id="change5_2"><path fill="#7959a4" clip-rule="evenodd" d="M816.4077148,466.6771851 c-9.3449707,15.352417-19.3132935,29.8352661-29.895874,43.4431763 c-10.5882568,13.6135254-21.8895874,26.4689331-33.8977051,38.5633545 c-2.1734619,2.1704102-5.6856079,2.3624878-8.0768433,0.3494873 c-28.1502075-23.6983643-54.0553589-48.8306885-76.0387573-76.6263428 c2.765625,53.3442993,6.560791,113.8726196,11.3900146,181.6176758 c-1.6895142,43.2798462-333.7033997,46.4396973-333.8207092,13.9500732 c-10.6835938-246.2180176,20.2451782-394.6480103,92.7857666-445.2956543 c7.9082031-1.8699951,17.3828735-5.03125,26.1485596-4.5647583c26.8186646,1.4325562,55.9017029,13.7811279,85.0072937,14.4222412 c25.5015259,0.5604248,50.0135498-16.4050293,71.5629883-13.6727905c16.0876465,2.083374,25.9382935,4.7902222,31.960083,8.6843262 c0.0120239,0.0067139,0.0251465,0.0090942,0.0371094,0.0161133c11.5917969,6.8291016,30.007019,25.671936,40.1072998,37.7432251 c34.5706787,41.3131104,43.0982666,90.3595581,70.3022461,133.8370972v0.0003052 c15.4632568,24.7216187,32.4507446,44.6114502,50.9466553,59.6620483 C817.3390503,460.6378784,818.0193481,464.0343628,816.4077148,466.6771851z" fill-rule="evenodd"/></g><g id="change4_3"><path fill="#ffca6f" clip-rule="evenodd" d="M465.0021362,218.1139526 c23.2704773,75.0807495,145.8799438,86.5670776,156.5703125,0.7494202 C570.1491699,212.1194916,517.9592285,211.8695831,465.0021362,218.1139526z" fill-rule="evenodd"/></g><g id="change1_4"><path fill="#f29051" clip-rule="evenodd" d="M550.934021,0h30.7161255 c33.5800781,0,61.0525513,27.4741974,61.0525513,61.0539894l0,0c0,33.5828972-27.4724731,61.0554008-61.0525513,61.0554008 H550.934021c-33.5800781,0-61.0542603-27.4727859-61.0542603-61.0554008l0,0C489.8797607,27.4741974,517.3539429,0,550.934021,0z" fill-rule="evenodd"/></g><g id="change5_3"><path fill="#7959a4" clip-rule="evenodd" d="M566.2907104,40.5476265l2.37146,0.0056419l-0.3136597-20.569828 c-0.0186157-1.6477528,1.3013916-3.0021706,2.9491577-3.0210686s3.0010376,1.3011093,3.0196533,2.9488621l0.3164673,20.6854687 c5.3951416,0.0620537,10.7180176,0.1833344,15.9557495,0.3638496l7.7243042-20.3808537 c0.5804443-1.545084,2.3060303-2.3263702,3.8516846-1.7444954c1.5439453,0.5804634,2.3252563,2.306345,1.7442017,3.8500195 l-7.0185547,18.5193024c3.9425049,0.171772,7.8314819,0.375412,11.6611938,0.6095161l14.3113403-15.9921093 c1.0960693-1.2260838,2.9863892-1.3315716,4.2127075-0.2338219c1.2258301,1.0974674,1.3312988,2.9863758,0.2341309,4.2124577 l-11.204834,12.5220146c3.9019165,0.2888222,7.7316284,0.6081085,11.4880371,0.960392 c0.1889648-0.1703606,0.4055786-0.3175926,0.6453247-0.4388733c3.4602051-1.738575,6.8623047-3.7070198,10.199585-5.8949051 c3.3157959-2.1763191,6.5362549-4.556282,9.6524048-7.1325512c1.2720337-1.0543118,3.1595459-0.8752098,4.2127686,0.397131 c1.0526123,1.2723408,0.8748779,3.1598358-0.3971558,4.2124596c-3.3056641,2.733654-6.706665,5.2492828-10.1894531,7.5353203 c-1.253418,0.8216209-2.522644,1.6158829-3.8110962,2.3856049c6.3067017,0.7133102,12.364624,1.5191345,18.1320801,2.4073181 c0.1906128-0.1241035,0.3988037-0.2267685,0.6210327-0.3091278c4.5518188-1.659317,9.4042358-3.3880196,14.5466309-5.1728477 c5.1107788-1.7746773,10.5289917-3.6218414,16.2406006-5.5265427c1.5636597-0.522644,3.2576904,0.3221016,3.7806396,1.8860855 c0.5240479,1.5653915-0.3204346,3.2579918-1.8858032,3.7820473c-5.6608276,1.8889046-11.0548096,3.7273254-16.168396,5.5020027 c-1.7994995,0.625309-3.5657349,1.2418785-5.2969971,1.8528061c6.5634155,1.2317238,12.6546021,2.5836029,18.2042847,4.0347633 c5.2134399-2.9691696,10.6474609-5.3604126,16.305481-7.1771164c6.0393066-1.936573,12.3341675-3.2173729,18.8771973-3.8370438 c1.6404419-0.1545677,3.0975342,1.0512085,3.2520752,2.6919098c0.154541,1.6418304-1.0515137,3.0991974-2.6918945,3.253479 c-6.1069946,0.5776443-11.9833374,1.7732658-17.6136475,3.5798149c-3.3474121,1.0729294-6.6152344,2.3655777-9.796814,3.8745575 c8.3758545,2.6267586,15.1095581,5.5209007,19.8677979,8.6169968c2.3799438-0.5155945,4.671936-0.9516487,6.8781128-1.3070335 c5.4007568-0.8692856,10.2706909-1.2534409,14.5968018-1.1524658c1.6494751,0.0375099,2.953125,1.4065971,2.9158936,3.0543442 c-0.0378418,1.6491623-1.406311,2.9530945-3.0540771,2.9155807c-3.958313-0.0939178-8.4683838,0.2671051-13.5210571,1.0802612 c-0.6774902,0.1097183-1.3673706,0.2281876-2.0651855,0.3536987c1.5541382,1.9351654,2.369812,3.9264526,2.369812,5.9583664 c0,2.1055222-0.8777466,4.1707153-2.5474854,6.1707458c1.0498047,0.3914948,2.0838013,0.78862,3.0991821,1.191391 c7.1009521,2.8146057,13.3653564,5.8861618,18.7835693,9.2076187c1.40802,0.8577194,1.854248,2.6989594,0.9962158,4.1069641 c-0.8579712,1.4094238-2.7003784,1.8542175-4.1083984,0.9964981c-5.1581421-3.1640701-11.1196289-6.0855713-17.8725586-8.7628174 c-1.9596558-0.7770538-3.9870605-1.5321121-6.0838623-2.2702408c-4.02771,2.6919098-9.5384521,5.2348938-16.3269043,7.5858078 c0.5720215,0.4174347,1.1366577,0.8447495,1.6951294,1.2807999c6.3021851,4.931694,11.7316895,11.0863647,16.279541,18.4558411 c0.8647461,1.4006729,0.4304199,3.2436066-0.9719849,4.1069717c-1.4006348,0.8650589-3.2435913,0.4304123-4.1072388-0.9705429 c-4.1732178-6.7613678-9.1356812-12.3934021-14.8771362-16.8873444c-1.6940308-1.3242416-3.4573975-2.548912-5.2913208-3.681076 c-5.5423584,1.6102448-11.7232666,3.1090698-18.4558105,4.4795609c4.7869873,3.6996918,9.2507324,8.2486343,13.3895874,13.6440277 c1.0007324,1.311264,0.7496948,3.1900177-0.5629883,4.1907349c-1.3109741,1.0007248-3.1900024,0.7494202-4.1907349-0.5618439 c-5.1136475-6.66745-10.7338257-11.9037552-16.8616943-15.7120361c-5.1914673,0.9183655-10.6576538,1.7676239-16.3674927,2.5373459 c5.855957,9.4676666,10.133606,18.9784851,12.8265991,28.5327377c0.444519,1.5899353-0.4822998,3.2419128-2.0725098,3.6867218 c-1.59021,0.4447937-3.2418823-0.4823151-3.6870117-2.0722504c-2.7567749-9.7796097-7.2955322-19.5518951-13.6192017-29.3126144 c-22.3001709,2.6888123-47.9196167,4.2166901-75.1760864,4.2166901c-30.387207,0-58.7391663-1.9004745-82.7272034-5.187233 c-0.5110779,2.6411438-0.8478394,5.2738266-1.0052185,7.8921204c-0.2250977,3.7143555-0.1009827,7.4024734,0.3723145,11.048851 c0.2137756,1.6347809-0.9403687,3.1352997-2.574585,3.3474045c-1.6347961,0.2123871-3.133606-0.9414902-3.346283-2.5762711 c-0.5268555-4.0508423-0.668457-8.1129684-0.421936-12.1694489c0.1675415-2.7914734,0.5200806-5.5916977,1.0498047-8.3961487 c-4.8654175-0.7350311-9.5328369-1.5292892-13.9746094-2.3785477c-0.5370178,3.9295578-1.1005554,7.8357086-1.6855469,11.7088547 c-0.782959,5.187233-1.6855469,10.8280106-2.6992493,16.9178085c-0.2702026,1.6274414-1.8124695,2.7294312-3.4399109,2.4578094 c-1.6274414-0.269928-2.729126-1.8124695-2.4595032-3.4399109c0.9432068-5.6624985,1.8384399-11.2798615,2.6761169-16.8267136 c0.6543579-4.3249969,1.2331543-8.3239365,1.7402649-11.997673c-4.6053467-0.9761887-8.9388123-2.0116043-12.972168-3.1048431 c-1.7024536,4.0897675-3.5250854,7.997612-5.4616699,11.7161942c-2.1689758,4.1647873-4.4998779,8.1231155-6.9909668,11.8676529 c-0.9098816,1.3761368-2.7686157,1.7532425-4.1444702,0.8419266c-1.3764038-0.9099045-1.7532349-2.7683487-0.8433533-4.1444855 c2.3540344-3.5366592,4.5749207-7.3158798,6.6643677-11.3275223c1.7633972-3.3849106,3.4241028-6.9274979,4.9804688-10.6215439 c-4.5517578-1.3992615-8.6268616-2.878067-12.1880493-4.4217377c-3.7733154,1.9176788-7.2250671,4.2082291-10.3468323,6.8668594 c-4.0547791,3.4514771-7.6075134,7.5787582-10.6429749,12.3660355c-0.8850708,1.3950348-2.7381592,1.8093719-4.1315002,0.9242859 c-1.39505-0.8853607-1.8096619-2.7364731-0.9240112-4.1315079c3.3287964-5.2492828,7.2780762-9.8227692,11.8343506-13.7018433 c2.4104309-2.0522156,4.9822083-3.9019165,7.7130432-5.5482559c-4.1010742-2.3596573-7.041748-4.8465118-8.6703186-7.4241943 c-2.1577148,0.2860031-4.2556152,0.6887741-6.2920227,1.2057724l-0.1212769,0.0259476 c-3.7936096,0.9705505-7.3435364,2.3438644-10.6390381,4.1069717c-1.4542847,0.7739563-3.263916,0.2253647-4.0390015-1.2289047 c-0.7739563-1.4542618-0.2250671-3.2636261,1.229187-4.0378647c3.747345-2.0059586,7.7372742-3.5524521,11.9646912-4.6355362 l0.1314087-0.0375137c2.0561829-0.5243378,4.180603-0.9386749,6.3699036-1.2463913 c0.3768005-2.5387573,2.0087585-5.0109482,4.7869873-7.3793488c-6.7799683-2.121315-11.9844055-4.8104095-15.6048584-8.0624771 c-1.2257996-1.1048012-1.3273315-2.9979401-0.2222595-4.2254333c1.1033936-1.2260818,2.99823-1.3256493,4.2240295-0.2222557 c3.7417297,3.3603745,9.8171387,6.0754166,18.2217407,8.1318626c3.6029358-1.933754,7.9804077-3.7792244,13.0675049-5.5163879 c-0.8489685-0.5082588-1.7069702-1.0543137-2.5706177-1.6333694c-4.4479675-2.9863739-9.0933838-6.9345474-13.9339905-11.8329582 c-1.1552734-1.1755981-1.1394958-3.0701447,0.0361023-4.2254333s3.0704346-1.139492,4.2257385,0.0361023 c4.5574036,4.6138191,8.8914185,8.3036346,12.9953003,11.0590057c2.5649719,1.7227821,5.0385742,3.0788918,7.4196777,4.0666389 c4.7672424-1.3431358,9.9773254-2.6095543,15.5935669-3.7806358c-2.2310486-1.2678261-4.2646484-2.559063-6.0996704-3.8672256 c-4.8276367-3.4413261-8.3284607-7.0530128-10.4884338-10.8251839c-0.8201904-1.4339561-0.3204041-3.2650452,1.1135559-4.0852547 c1.4328308-0.8202095,3.2650452-0.320694,4.0852356,1.1135445c1.7346497,3.0284004,4.6555786,6.006031,8.7554932,8.9289436 c3.3011475,2.3523216,7.3474731,4.6572571,12.1333618,6.9086037c5.3691406-0.9530563,11.0299377-1.831089,16.9553223-2.6253471 l-1.2534485-0.9804153c-3.2881775-2.6166039-6.3800354-5.377903-9.2710876-8.2703514 c-1.1609192-1.1682625-1.1569824-3.0630951,0.01297-4.2254333c1.1682739-1.1609306,3.0631104-1.1567001,4.2240295,0.0129738 c2.6947327,2.6947327,5.6162415,5.2997704,8.7571716,7.7996063c1.992981,1.585701,4.0519714,3.1164017,6.1792297,4.5906906 c4.8913574-0.5646706,9.9299316-1.0729294,15.1095581-1.5236511c-1.1338501-0.9646187-2.2327271-1.9726753-3.3011475-3.0210648 c-3.6074524-3.5394821-6.8307495-7.5454788-9.6625671-12.0050144c-0.8850708-1.3950329-0.4710388-3.2464275,0.9240112-4.1315079 c1.3933411-0.8853645,3.2464294-0.470747,4.1315002,0.9242859c2.6039124,4.1013298,5.5395203,7.7547588,8.7961121,10.9521084 c2.4837646,2.4391937,5.1711426,4.6313095,8.0610352,6.572113c4.7712402-0.3421288,9.6450806-0.6340561,14.6069946-0.8752098 c-2.6067505-4.3842278-5.3449097-9.4546909-8.206604-15.2094135c-0.7367554-1.4788036-0.1342773-3.278017,1.3459473-4.0161495 c1.4802246-0.7364407,3.2780151-0.1342564,4.0158691,1.3459549c3.442688,6.9187546,6.6643066,12.7817879,9.6625366,17.5834541 c3.3242798-0.1300278,6.6891479-0.2310028,10.0828247-0.3133621l-2.1633301-15.140028 c-0.2312622-1.6333675,0.9053955-3.1510944,2.5401611-3.3820953s3.151062,0.9053898,3.3823853,2.5401669l2.2671509,15.8634949 c3.6610107-0.0564117,7.3536377-0.0865898,11.0806885-0.0865898L566.2907104,40.5476265z" fill-rule="evenodd"/></g><g id="change4_4"><path fill="#ffca6f" clip-rule="evenodd" d="M542.0408936,123.8426056h-0.0016479 c-18.2984619,0-33.2692871,14.9710846-33.2692871,33.2695312v59.7427368c0,18.2984467,14.9713745,33.2695312,33.2692871,33.2695312 h0.0016479c18.2984619,0,33.2692871-14.9710846,33.2692871-33.2695312v-59.7427368 C575.3101807,138.8136902,560.3388062,123.8426056,542.0408936,123.8426056z" fill-rule="evenodd"/></g><g id="change1_5"><path fill="#f29051" clip-rule="evenodd" d="M508.7699585,157.3704987v43.0547943 c16.725708,25.3283386,38.0884399,34.9720154,64.0823975,28.940033c1.5828857-3.8658142,2.4578247-8.0912476,2.4578247-12.5087585 v-25.9203796c-15.3910522-28.8632965-37.5700073-40.0537415-66.5402222-33.5653992V157.3704987z" fill-rule="evenodd"/></g><g id="change2_3"><path fill="#0b9672" clip-rule="evenodd" d="M496.0392151,71.6797638 c-1.7402649,3.4167862-2.7223511,7.2755508-2.7223511,11.3551636v39.5556488 c0,13.8518982,11.3317566,25.1839294,25.1839294,25.1839294h88.065918c13.8521729,0,25.1838989-11.3320312,25.1838989-25.1839294 V83.0349274c0-5.1107941-1.5439453-9.8777695-4.1851196-13.85923c-15.3092041-3.5815048-37.0978394-5.8198738-61.2747803-5.8198738 C536.8843994,63.3558235,511.0156555,66.6685333,496.0392151,71.6797638z" fill-rule="evenodd"/></g><g id="change4_5"><path fill="#ffca6f" clip-rule="evenodd" d="M507.3721008,148.2365112 c0,33.366272,27.049408,60.4156952,60.415741,60.4156952c33.366272,0,60.4173584-27.0496979,60.4173584-60.4156952V103.418602 c0-12.6012726-10.3123779-22.9122772-22.9139404-22.9122772h-75.006897c-12.6015015,0-22.912262,10.3110046-22.912262,22.9122772 V148.2365112z" fill-rule="evenodd"/></g><g id="change5_4"><path fill="#7959a4" d="M619.897583,145.1127319c0,5.1427002-4.1693115,9.3117065-9.3116455,9.3117065 c-5.142395,0-9.3117065-4.1693115-9.3117065-9.3117065c0-5.144043,4.1693115-9.3116455,9.3117065-9.3116455 C615.7282715,135.8010864,619.897583,139.9689331,619.897583,145.1127319z M570.3369751,145.1127319 c0-5.1437988-4.1676025-9.3116455-9.3117065-9.3116455c-5.142334,0-9.3116455,4.1676025-9.3116455,9.3116455 c0,5.142395,4.1693115,9.3117065,9.3116455,9.3117065C566.1693726,154.4244385,570.3369751,150.2554321,570.3369751,145.1127319z M623.1880493,129.362915c-2.147583-2.2254028-4.7249756-3.6838989-7.7260132-4.3757324 c-2.9113159-0.670166-6.1995239-0.6064453-9.8543701,0.189209v0.0003052 c-1.0357056,0.222229-1.6939697,1.2446899-1.4717407,2.2800903c0.223938,1.0354614,1.2460938,1.6940308,2.2800903,1.4700928 c3.109375-0.6772461,5.84021-0.7437744,8.1896973-0.2036743c2.2631836,0.5198364,4.2054443,1.6204224,5.8210449,3.2955322 c0.7333374,0.7609863,1.9467163,0.7841187,2.7093506,0.0518799 C623.8970947,131.3384399,623.9202271,130.1239014,623.1880493,129.362915z M564.3382568,128.927124 c1.0357056,0.223999,2.0578613-0.4346313,2.2801514-1.4700317c0.223938-1.0354004-0.4349365-2.0578613-1.4700928-2.2800903 c-3.6548462-0.7957153-6.9418335-0.8591309-9.8560181-0.1878662c-3.0010376,0.6915894-5.5784302,2.1503906-7.7232056,4.3740845 c-0.7321777,0.7609863-0.7107544,1.9754639,0.0519409,2.7077026c0.7626343,0.7321777,1.9754639,0.7090454,2.7077026-0.0518799 c1.6161499-1.6751099,3.5567017-2.774292,5.8198853-3.2941284 C558.4998169,128.1833496,561.2306519,128.249939,564.3382568,128.927124z M595.5321655,177.6732178l-0.2064209,0.1170654 c-4.8710938,2.7150269-10.0365601,3.5394287-14.7705688,2.2513428c-4.7610474-1.2940674-9.1672363-4.7568359-12.4989014-10.6040649 l-0.1427002-0.2440186v-0.0002441c-0.7090454-1.2593994-2.3088989-1.7069702-3.5685425-0.9979248 c-1.2590332,0.7091064-1.7069702,2.3092041-0.9978638,3.5685425l0.1427002,0.2541504 c4.0812988,7.1756592,9.6208496,11.4547119,15.6860962,13.1038818c6.0838623,1.6550903,12.6314087,0.6456299,18.718689-2.7539673 l0.2279053-0.1286011c1.2608032-0.7147217,1.7041626-2.3193359,0.9894409-3.5784302 C598.3955688,177.4016113,596.7912598,176.9584961,595.5321655,177.6732178z"/></g><g id="change2_4"><path fill="#0b9672" clip-rule="evenodd" d="M495.9986267,71.6927414 c-1.7126465,3.3894272-2.6800842,7.2118073-2.6800842,11.2496719v0.0028229 c-3.8139038,29.1117935-2.6947327,49.7047577,3.3592529,61.7760468c0,0,7.5962524-2.22258,22.7910156-6.6688538 c17.1442871,0.7133026,31.1453857-16.5407104,42.0089111-51.7657166 c17.9876709,11.5946274,70.2734375,40.3730392,70.2734375-3.3417587V82.942131c0-5.0687714-1.5236206-9.798233-4.1342773-13.7551498 l-0.7221069-0.1661301l-0.0473633-0.0115585l-0.6842651-0.1545715l-0.2397461-0.0533066l-0.5009155-0.1097183l-0.4360352-0.0939178 l-0.3148193-0.0679779l-0.6385498-0.1342545l-0.1212769-0.0231323l-0.7694092-0.1587982l-0.0750732-0.0143814l-0.7017212-0.1401825 l-0.2803955-0.0564117l-0.5054321-0.0967407l-0.4907227-0.092514l-0.3063354-0.0578232l-0.7034302-0.1314316l-0.0998535-0.0172043 l-0.8117676-0.1472321l-0.111084-0.018898l-0.7091064-0.1241074l-0.3265991-0.0564117l-0.5054321-0.086586l-0.5432739-0.0911026 l-0.2944336-0.0476685l-0.7694702-0.1255112l-0.0750122-0.0115662l-0.8535156-0.1370773l-0.1460571-0.0217209l-0.7175903-0.1097183 l-0.3694458-0.0564117l-0.4998169-0.0750198l-0.600769-0.0880051l-0.2758789-0.0389175l-0.8376465-0.1184692l-0.0490723-0.0087433 l-0.8924561-0.1226883l-0.1833496-0.0259476l-0.7163696-0.0967484l-0.4202881-0.0533066l-0.487915-0.0634613l-0.6600342-0.0851822 l-0.2555542-0.031868l-0.9042358-0.1111298l-0.0186157-0.0028229l-0.9302368-0.1097183l-0.223938-0.027359l-0.713562-0.0823593 l-0.4693604-0.0518951l-0.4749756-0.0550003l-0.7192383-0.0778503l-0.2312622-0.0259476l-0.9572754-0.0995636l-0.0158081-0.0014114 l-0.9488525-0.0967407l-0.265686-0.027359l-0.7045288-0.0693893l-0.5201416-0.0490723l-0.4591675-0.0448532l-0.7785034-0.0707932 l-0.2053223-0.018898l-0.9905396-0.0879974l-0.0490723-0.0042343l-0.9460449-0.0809479l-0.309082-0.0259476l-0.694458-0.0578232 l-0.5719604-0.046257l-0.4360962-0.0332794l-0.8377075-0.0634613l-0.1776733-0.0129776l-1.0193481-0.0750275l-0.086853-0.0042267 l-0.9403687-0.0665665l-0.3525391-0.0245361l-0.6803589-0.0434341l-0.6239014-0.041748l-0.4129028-0.0245361l-0.8980713-0.0550003 l-0.1444092-0.0087433l-1.048645-0.0606422l-0.1257935-0.0073357l-0.9285278-0.0490761l-0.3999634-0.0217171l-0.6583252-0.0332832 l-0.6757812-0.0332832l-0.3869629-0.0188942l-0.9572754-0.0417442l-0.111145-0.0056419l-1.074646-0.046257l-0.1658325-0.0056419 l-0.9127197-0.0361023l-0.446228-0.0172043l-0.6368408-0.0217171l-0.7305298-0.0259514l-0.3582153-0.0115623l-1.0164795-0.0304642 l-0.0767212-0.0014076l-1.0960693-0.0318718l-0.2081909-0.0042305l-0.894104-0.0217209l-0.4941406-0.0129738l-0.6120605-0.0115623 l-0.782959-0.0157967l-0.3265991-0.0056419l-1.0758057-0.0172043h-0.0388794l-1.1174927-0.0157928l-0.249939-0.0014114 l-0.8709717-0.0087433l-0.5432129-0.0042305l-0.5821533-0.0042305l-0.8377075-0.0028229l-0.291626-0.0014076l-1.1338501-0.0014114 l-1.3775635,0.0014114l-0.2611694,0.0014076l-1.1090088,0.0073357l-0.5212402,0.0028191l-0.8450317,0.0087433l-0.7796021,0.0087433 l-0.5805054,0.0087433l-1.0356445,0.0143852l-0.3193359,0.0056419l-1.2883911,0.0259476l-0.0609131,0.0014114l-1.3414307,0.0304604 l-0.1963501,0.0042305l-1.140625,0.0318718l-0.447876,0.0115662l-0.8811646,0.027359l-0.6989136,0.0231285l-1.5698853,0.0564117 l-0.3695068,0.0129738l-1.1914062,0.0504875l-0.1184082,0.0042305l-1.3013916,0.0578194l-0.1286621,0.0056419l-1.1654053,0.0578194 l-1.2867432,0.0648727l-0.6165771,0.0332832l-0.6627808,0.0375137l-0.8552246,0.0504875l-0.4157104,0.0259476l-1.0904541,0.0679779 l-0.1731567,0.0101471l-1.253479,0.0851822l-0.067688,0.0028229l-1.1801147,0.0837708l-0.3034668,0.0217133l-0.9330444,0.0693893 l-0.5369873,0.040329l-0.6932983,0.0564117l-1.2190552,0.100975L535.28125,64.650444l-0.2211304,0.0203094l-1.2015381,0.1097183 h-0.0101929l-1.1829224,0.1097183l-0.2369385,0.0217209l-0.9470825,0.0953293l-1.1220093,0.1139526l-0.0490723,0.0056381 l-0.6786499,0.0708008l-0.4851074,0.0518951l-0.8895874,0.0981522l-0.2640381,0.0304642l-2.2744751,0.2642822l-0.1731567,0.0203094 l-0.9471436,0.119873l-0.3841553,0.0476685l-0.7277222,0.0925064l-0.067688,0.0087433l-1.0322876,0.1370773l-0.7914429,0.1083145 l-0.2973022,0.0417404l-0.9894409,0.1387711l-0.0880127,0.0143814l-1.0672607,0.1559753l-1.0543213,0.1602097l-0.3136597,0.0476685 l-0.7293701,0.1156387l-2.0493774,0.3364868l-0.8777466,0.1486435l-0.1297607,0.0245361l-1.8988037,0.3407211l-0.0767212,0.0129776 l-0.2453613,0.046257l-0.7220459,0.1370773l-0.0378113,0.0073318c-0.948822,0.1819229-1.8818359,0.3683624-2.7911682,0.5604401 l-0.9155579,0.1963043l-0.0158081,0.0014114l-0.8867493,0.196312l-0.8879089,0.2008209l-0.349762,0.0795364l-0.5257263,0.1241074 l-0.0231323,0.0056381c-1.1468201,0.2716217-2.2586975,0.5531082-3.331604,0.8405151l-0.1314392,0.0346985l-0.6712952,0.1833344 c-1.0571289,0.2930527-2.0781555,0.5934372-3.0557556,0.8997421l-0.724884,0.2310028l-0.7107544,0.2338257L495.9986267,71.6927414z" fill-rule="evenodd"/></g><g id="change4_6"><path fill="#ffca6f" clip-rule="evenodd" d="M507.7562561,133.0341492 c-8.9359741,0-16.179657,7.2450867-16.179657,16.181366s7.2436829,16.1796722,16.179657,16.1796722 c8.9360046,0,16.181366-7.2436829,16.181366-16.1796722C523.9376221,140.2792358,516.6922607,133.0341492,507.7562561,133.0341492z" fill-rule="evenodd"/></g><g id="change5_5"><path fill="#7959a4" clip-rule="evenodd" d="M880.8855591,598.4883423 c0.5675049,6.5924072-4.3165283,12.4004517-10.9086914,12.9682007 c-24.7709961,2.1735229-48.3184204,6.1360474-70.6282349,11.8778076 c-22.3132324,5.7403564-43.6973267,13.3306885-64.1489868,22.7591553 c-71.6955566,33.0571289-124.9431763,84.5221558-165.2507935,145.8088379 c-40.6923218,61.8713989-68.3469543,133.8834229-88.5109558,207.2441406l-7.6221924,28.1876221 c-26.0125732,96.3656006-52.3867798,194.0623779-119.9147339,264.3790283 c-39.0715942,40.6877441-87.4594727,68.7553711-145.1505737,84.1888428 c-57.0147095,15.2557373-123.1233521,18.1105957-198.3079224,8.5650635 c-6.5419307-0.8275146-11.1743164-6.8017578-10.3468018-13.3436279c0.8275757-6.5418701,6.802002-11.1746826,13.3433838-10.3470459 c71.9905396,9.1396484,135.0372314,6.4724121,189.1321411-8.0019531 c53.421936-14.2924805,98.1256104-40.1750488,134.1003418-77.6337891 c63.2271729-65.8398438,88.7980957-160.5577393,114.0169678-253.9871826 c1.6635742-6.1619873,3.3141479-12.2791748,7.7147217-28.2813721 c20.7562866-75.5140381,49.3439941-149.8236694,91.6011047-214.0778198 c42.647522-64.8447876,99.0789795-119.336792,175.1751099-154.4244385 c21.5736694-9.9454956,44.3341675-18.0037231,68.2703247-24.1629028 c23.9360962-6.1591797,48.7646484-10.3730469,74.468689-12.6286621l-0.0010986-0.0002441 C874.5094604,587.010498,880.3180542,591.8945312,880.8855591,598.4883423z M988.8356323,634.2879028l-43.9787598-48.0961914 c2.4418945-5.3288574,3.6119385-11.128418,3.418457-16.8919067c-0.2397461-7.1020508-2.5345459-14.1463623-7.0316162-20.2073975 c-6.0623779-8.1651001-14.9752197-13.0144653-24.4832764-14.2461548 c-9.4052734-1.2173462-19.4002075,1.1234131-27.7472534,7.3172607l-0.0010986,0.0003052 c-8.3538818,6.2009277-13.4979248,15.0965576-15.0531616,24.4573364l-0.0028687,0.0245361 c-1.5670776,9.4256592,0.4942017,19.3480225,6.5577393,27.5159302c4.3599854,5.8760376,10.2114258,10.0380249,16.6969604,12.3688965 c5.2738647,1.8959351,10.9667969,2.5748291,16.614624,1.9769287l33.5959473,56.5007935l0.3452148,0.5184326 c1.965332,2.6498413,5.7081299,3.2058105,8.3582764,1.2404175l31.862915-23.6616821l0.472168-0.3897705 C990.8889771,640.4933472,991.0581665,636.7169189,988.8356323,634.2879028z" fill-rule="evenodd"/></g><g id="change4_7"><path fill="#ffca6f" d="M896.6641235,605.694519c0,13.7565308-10.9836426,24.9080811-24.5340576,24.9080811 c-13.5498047,0-24.5340576-11.1515503-24.5340576-24.9080811c0-13.7565918,10.9837036-24.9080811,24.5340576-24.9080811 C885.6798706,580.786438,896.6641235,591.9379272,896.6641235,605.694519z M368.2828674,1231.875 c-11.1241455-1.5566406-22.0965576-3.786499-32.3886719-6.6862793c-2.8408813-0.8029785-5.6303711-1.6533203-8.3555298-2.5576172 c-0.4823608,3.1264648-0.9719849,6.2731934-1.4718018,9.4459229c-0.5618286,2.7105713,0.8258667,5.5395508,3.4658813,6.6890869 c0.9415283,0.4130859,1.8959961,0.8188477,2.8605957,1.2174072c8.2229614,3.3908691,17.2683716,6.2415771,26.7577515,8.5535889 c3.9667969-5.322998,7.7576294-10.7775879,11.385376-16.355957c-0.7508545-0.0996094-1.5033569-0.2009277-2.2541504-0.3061523 H368.2828674z M521.8081055,882.2244263v-0.0003052c0,0.0001221-0.000061,0.0002441-0.000061,0.0003662L521.8081055,882.2244263z M495.4316711,952.4298706c7.7818604-23.8568726,16.5090942-47.3624878,26.3763733-70.2053833 c-10.3326721,113.8262939-26.400116,196.2674561-71.7044983,368.3184814 c-0.6842651,2.6008301-2.9846802,4.3481445-5.5394897,4.4522705c-1.8311157,0.1717529-3.6898193,0.3192139-5.5728149,0.4448242 c-0.0006104,0.0001221-0.0012207,0.0001221-0.0018311,0.0001221l-27.4334717,89.7177734l59.8510742,12.2576904 c2.6445312,0.3985596,4.1912842,2.7553711,3.5166016,5.6046143l-7.4083862,31.3168945 c-0.7389526,3.1265869-3.8742676,5.6625977-7.0022583,5.6625977h-20.3833618c3.1251221,0,6.2615356-2.5360107,7.0010986-5.6625977 l7.4083862-31.3168945c0.6729736-2.8479004-0.8737793-5.2060547-3.5148926-5.6046143l-59.8510742-12.2591553l27.2824097-89.225708 c0.1774292,0.0028076,0.3518677,0.0008545,0.5291138,0.0032959c-11.088501-0.1574707-22.5600586-0.9987793-33.8604126-2.5316162 c4.2922974-6.1936035,8.3746948-12.526001,12.2664795-18.9827881c10.9278564,0.3886719,21.5809937,0.1230469,31.442688-0.7983398 c2.5542603-0.104126,4.8552246-1.8514404,5.5394897-4.4522705c4.987854-18.9423828,9.6208496-36.7957764,13.9300537-53.7265625 C472.098053,1081.980957,486.047821,1016.6955566,495.4316711,952.4298706z M427.1096497,1255.9179688 c1.4319458-0.0240479,2.852356-0.0612793,4.2647705-0.109375 C429.9623108,1255.8565674,428.5412903,1255.8939209,427.1096497,1255.9179688z M425.1199646,1255.9450684 c-1.5115356,0.0136719-3.0334473,0.0118408-4.5621338-0.0008545 C422.0869446,1255.9570312,423.6082458,1255.9587402,425.1199646,1255.9450684z M438.8817444,1255.4458008 c-1.8809814,0.1248779-3.7908325,0.2216797-5.7161865,0.3013916 C435.0908508,1255.6674805,437.0007019,1255.5709229,438.8817444,1255.4458008z M515.6435547,727.585022l-0.0005493-0.0003052 c-3.0800171,50.305542-5.8976746,92.368103-9.3432312,130.7873535c5.8801575-12.828064,12.1361389-25.4380493,18.7993469-37.7807007 c0.6137085-1.1380615,1.2319946-2.2744751,1.854187-3.40802c2.59375-37.0457153,5.0617065-78.4702148,7.9628906-127.1409302 l0.0869141-1.4455566c-5.65802,0.2628784-11.3492432,0.4837036-17.0461426,0.6600342 C517.1610107,702.5657959,516.3960571,715.3216553,515.6435547,727.585022z M725.453064,1363.0206299l-0.182251,31.3167725 C725.2521973,1397.4641113,722.7019043,1400,719.5767212,1400h-23.7843628c3.1268311,0,5.6771851-2.5358887,5.6958008-5.6625977 l0.180481-31.3167725c0.0175171-2.8479004-2.0719604-5.2061768-4.807312-5.6046143l-62.678894-12.2592773l6.8623657-91.4310303 c0.0076294-0.0010986,0.0151978-0.0028076,0.0228271-0.0039062c-10.4534912,1.6173096-20.831543,2.3619385-31.1326904,2.2310791 c-18.8112183-0.2397461-37.2941284-3.3850098-55.4352417-9.4460449c-1.3487549-0.4504395-2.6958618-0.9169922-4.0418091-1.3991699 c-2.2936401-0.8188477-3.9425049-3.0008545-3.9628296-5.5756836c-0.0259399-2.6660156-0.0546875-5.331665-0.0852051-7.9975586 c2.7150879,0.7434082,5.43573,1.4223633,8.164917,2.0374756c12.3110352,2.774292,24.7738037,4.2401123,37.3821411,4.4017334 c20.1408081,0.2573242,40.5738525-2.8289795,61.2922974-9.2567139c2.4301758-0.7479248,4.0361938-2.9012451,4.2138672-5.2927246 c1.1959229-16.0916748,2.3151245-32.0865479,3.3519287-47.9819336c1.5941772-24.487915,2.9909058-48.743042,4.1647949-72.7730713 c1.2478027-25.5,2.2428589-50.7502441,2.9604492-75.7536621c0.2301025-7.9975586,0.4303589-15.972168,0.602417-23.9204102 c0.0101929-0.4836426,0.0203247-0.970459,0.0304565-1.4542236c0.7609863-35.9755249,0.918396-71.4442139,0.3841553-106.423584 c-0.5054321-33.2029419-1.6364746-65.9481812-3.4602051-98.2573242c-1.2449951-22.0601807-2.8148804-43.916748-4.7311401-65.5755615 v0.0005493c-0.2454224-2.7494507-0.4924927-5.4991455-0.7479858-8.2443848 c0.1450195-0.039856,0.2863159-0.0888672,0.4309692-0.1296997c-11.513855,3.2487183-24.2283936,3.5579834-37.7556152,1.1484985 c-34.5587769-6.1563721-77.9328613-31.8023071-118.5224915-70.9475708 c-38.7873535-37.4066772-76.4312134-88.050415-102.328186-146.3157349 c-26.2681274-59.1016235-40.5997925-126.1963501-32.336792-195.8241577v-0.0003052 c2.5159302-21.3770752,20.4906006-35.8875122,40.1479492-32.4100952c19.6557007,3.477417,33.5524292,23.628418,31.038208,45.0057373 c-6.2705688,52.821167,5.031311,104.68927,25.6013794,150.9715576 c21.2758179,47.8649292,52.3331604,89.5969238,84.3879089,120.5109863 c30.2512817,29.1766968,59.887146,47.8116455,81.1200562,51.593689c4.2748413,0.7595825,7.2233887,0.8608398,8.5259399,0.2064819 c17.796936-8.9058228,39.3305664-0.104126,48.0888672,19.6602173c8.1932373,18.4854736,2.3123779,40.0169678-13.0442505,50.0125122 c0.0587158-0.038147,0.1207886-0.0721436,0.1792603-0.1106567c0.782959,7.3951416,1.5247803,14.8137207,2.2254028,22.2565308 c2.2874146,24.3273315,4.132019,48.9076538,5.5614624,73.7477417c1.9066772,33.0932617,3.0789185,66.6470947,3.598999,100.6790771 c0.4163208,27.3399048,0.4135132,54.975708,0.0276489,82.9192505c-0.2154541,15.5458984-0.5460205,31.1868896-0.9894409,46.9248047 c-0.2905273,10.3369141-0.628418,20.717041-1.0125732,31.1378174c-0.6627808,17.9720459-1.4632568,36.069458-2.3872681,54.2971191 c-1.8840942,37.1322021-4.291748,74.8018799-7.133667,113.0289307c-0.1765747,2.3901367-1.7836914,4.5447998-4.2127686,5.2913818 c-2.0042725,0.6221924-4.0062866,1.2131348-6.0031738,1.7718506c-0.0002441,0-0.0004272,0.0001221-0.0006714,0.0002441 l-7.2593994,96.6899414l62.6800537,12.2592773C723.3804932,1357.8144531,725.468811,1360.1727295,725.453064,1363.0206299z M674.5250854,717.0454102c-0.2598267,0.1585083-0.5155029,0.3223267-0.7805176,0.4742432 C674.0095825,717.3677368,674.2650757,717.2038574,674.5250854,717.0454102z M672.0531006,718.428772 c-0.2740479,0.1375732-0.5549316,0.2595215-0.8307495,0.3930664c0.276123-0.1337891,0.5581055-0.2544556,0.8324585-0.3922729 c0.1749878-0.0875854,0.3413696-0.1866455,0.5143433-0.2769775 C672.3959351,718.243042,672.2283936,718.3410645,672.0531006,718.428772z M666.3884277,720.9348145 c-0.4522095,0.1750488-0.9115601,0.3330078-1.367981,0.4981079 C665.4768677,721.2678833,665.9362183,721.1098022,666.3884277,720.9348145z M663.4456177,721.9915161 c-0.4646606,0.1548462-0.9352417,0.2952271-1.4039917,0.4400635 C662.510437,722.2867432,662.980957,722.1463623,663.4456177,721.9915161z M669.2697144,719.7418823 c-0.4308472,0.1911011-0.8699951,0.3629761-1.3049927,0.5445557 C668.3997192,720.1047974,668.8388062,719.9329834,669.2697144,719.7418823z M659.6089478,1249.9503174 c-0.2366333,0.0594482-0.4733276,0.1209717-0.7098999,0.1795654 C659.1355591,1250.0714111,659.3723145,1250.0097656,659.6089478,1249.9503174z M652.6733398,1251.5678711 c0.2778931-0.0598145,0.5557861-0.119873,0.8338013-0.1809082 C653.229126,1251.447998,652.9512329,1251.5080566,652.6733398,1251.5678711z M646.7070312,1252.7608643 c0.178894-0.032959,0.357666-0.0635986,0.5366211-0.0970459 C647.0646973,1252.6972656,646.8859253,1252.7279053,646.7070312,1252.7608643z"/></g><g id="change5_6"><path fill="#7959a4" clip-rule="evenodd" d="M469.0834351,419.2164612 c12.3905945,53.1159058,34.2384033,95.9667664,65.5394897,128.5447083c2.1836548,2.1935425,2.3494873,5.736084,0.3034668,8.1259155 c-11.1743774,13.0996704-23.7759094,24.8646851-37.7995605,35.2854004 c-13.9125366,10.3369141-29.2285767,19.3468628-45.9430237,27.0178223c-2.5559692,1.296875-5.7504883,0.6021729-7.5150146-1.777771 c-9.9197998-13.359436-22.1180115-29.8742065-34.2891541-49.1141357 c-12.2185364-19.3192139-24.3924866-41.3534546-34.1690063-65.6333923 c-19.2613831-47.8333435-32.2380676-101.8010254-31.1233826-149.6662292 c0.9533386-40.8480225,12.1361694-77.3639832,38.2818909-102.2574005 c8.8711243-8.4438171,19.3381042-15.0997009,31.38797-19.9546661c11.905426-4.8002625,25.323822-7.8328857,40.2444153-9.0719452 c0.3378906-0.027359,0.681427-0.027359,1.031189,0.0042267c3.2909851,0.2989807,5.7200317,3.211731,5.4227295,6.5027313 c-6.7540283,74.3702545-3.877655,138.3731232,8.6285706,191.9944611L469.0834351,419.2164612z" fill-rule="evenodd"/></g><g id="change2_5"><path fill="#0b9672" clip-rule="evenodd" d="M427.6882629,557.7833252 c-12.2185059-19.3178101-24.394165-41.3534546-34.1690063-65.6334229 c-16.3399048-40.5766602-28.1573486-85.5691528-30.6845093-127.5033569 c-0.4518433-7.4992065-0.6092529-14.9002686-0.4389038-22.161438h-0.0005493 c0.9533081-40.8480225,12.1361694-77.3668213,38.2835693-102.2587891 c4.0739746-3.8787842,8.4841919-7.3779297,13.2294312-10.5002441c-0.0507812,0.0202637-0.1010132,0.0402832-0.1528931,0.0606079 c-12.0498657,4.8549805-22.5134277,11.5111694-31.3845825,19.9546509 c-26.1468506,24.8920288-37.3302612,61.4108276-38.2835693,102.2588501 c-0.5629883,24.1629028,2.4651489,49.8852539,8.0813599,75.5861816c0.008667,0.0397339,0.0180664,0.0795288,0.0267944,0.1192627 c-0.008667-0.0396729-0.0186768-0.0793457-0.0273438-0.1190186c-8.1693726,65.7113037-10.2023926,145.8393555-6.0996704,240.3880005 c0.0101318,2.9761963,2.8075562,5.6551514,7.8816528,8.0291748c4.387085,2.0535889,10.4771729,3.881897,17.9385986,5.4802856 c-0.0288086-0.2092896-0.0445557-0.4202881-0.0445557-0.6326294c-0.6746826-15.5560913-1.184082-30.7234497-1.5276489-45.49823 c-1.1896973-51.3452759-0.3739624-97.9752197,2.4448853-139.8920288c-0.1046753-0.2703857-0.2033081-0.5455933-0.3075562-0.8163452 c0.9056396,2.3522949,1.8223267,4.6954346,2.7585449,7.0201416c9.7753906,24.2799683,21.9505005,46.3156128,34.1679077,65.632019 c11.0446167,17.4578857,22.1078491,32.670166,31.4742432,45.3204956c6.2875366-3.0038452,12.3703003-6.2023315,18.2505493-9.5932007 C449.7498474,590.3897705,438.7097473,575.2034912,427.6882629,557.7833252z M354.2234192,436.5048218 c-0.0722046-0.2988892-0.1409302-0.5977783-0.2124023-0.8966675 C354.082489,435.9070435,354.1512146,436.2060547,354.2234192,436.5048218z M361.4104309,462.6922607 c-0.1226807-0.4002686-0.2468872-0.7996216-0.3685303-1.2001953 C361.1634827,461.8925781,361.2877502,462.2921753,361.4104309,462.6922607z M358.8633728,454.0900879 c-0.1247559-0.4368896-0.2489624-0.8735352-0.3723755-1.310791 C358.6144104,453.2164307,358.738678,453.6533203,358.8633728,454.0900879z M356.4583435,445.3395996 c-0.1069946-0.4055176-0.2114868-0.8110962-0.3173218-1.2167969 C356.2467957,444.5284424,356.3513489,444.9342041,356.4583435,445.3395996z M369.3807678,486.4459839 c0.1427002,0.3912964,0.2832031,0.7839966,0.4268188,1.1746826 C369.6639709,487.2299194,369.523468,486.8374023,369.3807678,486.4459839z M363.7779846,470.2054443 c0.0899658,0.2769165,0.1829224,0.5525513,0.2733765,0.8292847 C363.9608459,470.7579346,363.8680115,470.4824829,363.7779846,470.2054443z M366.5593567,478.5048218 c0.0564575,0.1634521,0.1109619,0.3280029,0.1675415,0.491394 C366.6703186,478.8327637,366.6158142,478.668335,366.5593567,478.5048218z" fill-rule="evenodd"/></g><g id="change1_6"><path fill="#f29051" clip-rule="evenodd" d="M840.4561157,614.9813843 c-7.1799316,16.3040771-1.2590332,35.7865601,14.423645,45.1659546c13.4516602,8.0466919,30.0504761,6.2531128,41.4244995-3.2766113 c-9.6727295,3.3618164-20.7099609,2.5776978-30.1864014-3.0904541c-13.574646-8.1174316-19.835083-23.8046875-16.6174316-38.447998 c-0.2120972-0.5127563-0.4055786-1.0297852-0.5849609-1.5580444 C846.0780029,614.151001,843.258606,614.5540771,840.4561157,614.9813843z M485.7742004,608.5754395 c-1.756073-2.0130615-3.5019531-4.0523071-5.2394104-6.1171875c-4.7830505,2.9747925-9.7059937,5.8111572-14.7716675,8.5129395 c-0.0084534,0.0042114-0.0158081,0.008728-0.0231323,0.0129395c12.4092102,15.4028931,25.3542786,29.5177002,38.4308167,42.1276855 c0.444519,0.4276123,0.8895874,0.8563232,1.3341064,1.2808228c0.5646667,0.5401001,1.127655,1.0757446,1.6940308,1.6102295 c9.3489075,8.8322144,18.8281555,16.9437866,28.2989197,24.2652588c3.486145,2.6947632,6.9706421,5.281189,10.4466553,7.7578735 c17.93573,12.7761841,35.6537476,22.6003418,52.194458,28.9775391c5.6478271,2.1791382,11.1585693,3.9555054,16.4944458,5.3099365 c2.7353516,0.6932983,5.4227295,1.2751465,8.0593262,1.7459106l0.291687,0.0490723l1.2099609,0.2078857 c4.0666504,0.6670532,8.0593872,1.0844727,11.9647217,1.2492065c8.3859863,0.3536987,16.3731689-0.4679565,23.8582764-2.5258179 c4.1766357-1.1479492,8.1936035-2.6802979,12.0368652-4.6109619c1.2145386-0.6080933,2.3799438-1.2825317,3.4963379-2.0175171 c7.9110107-5.22052,13.2773438-13.5154419,15.4632568-22.864624c-2.9491577,3.4354248-6.5475464,6.3123169-10.7197266,8.4003906 c-1.96698,0.9877319-3.9797363,1.8731079-6.0375977,2.6543579c-10.3152466,3.9194336-21.7236938,5.2636719-33.9106445,4.2240601 c-3.0890503-0.2642822-6.2282715-0.6802979-9.411499-1.2478027c-0.0953369-0.0172119-0.1918335-0.034729-0.2871704-0.0518799 c-1.5670776-0.2832031-3.151062-0.6081543-4.7525635-0.9691772c-4.4711304-1.0122681-9.0747681-2.3322754-13.7856445-3.9467163 c-11.4530029-3.923645-23.5474243-9.5875854-35.9470215-16.8197021 c-20.9210205-12.2026978-42.7095947-28.8677979-63.7518311-49.1603394 c-8.9850769-8.6646729-17.9069824-18.0384521-26.6365051-28.0546875L485.7742004,608.5754395z M802.3778687,549.7033691 c-8.2342529-8.7266846-16.864502-17.875061-25.630127-27.4871826c-2.7178345,3.2450562-5.477478,6.4451904-8.2805176,9.5960083 c7.7474365,8.4379272,15.3668213,16.5133667,22.6742554,24.2582397 c13.7207031,14.5437622,25.8726807,27.4237061,34.9085083,37.0487671c4.944397-0.8822632,9.9265747-1.6881104,14.9420776-2.4146729 C831.7164307,580.8022461,818.0752563,566.3408203,802.3778687,549.7033691z" fill-rule="evenodd"/></g><g id="change3_3"><path fill="#00d6bc" d="M816.4071655,466.6768799c-1.3589478,2.2310791-2.7319946,4.4462891-4.1185303,6.6443481 c-8.140625,12.9016724-16.7341919,25.1709595-25.7774048,36.7988281 c-5.8006592,7.4575195-11.8168335,14.6896362-18.0440063,21.6921387 c-5.1395874,5.7792358-10.4252319,11.402832-15.8536377,16.871521c-2.1735229,2.1704102-5.6856079,2.3624878-8.0768433,0.3494873 c-1.3171997-1.1090088-2.6298828-2.2194824-3.9368896-3.3358154c7.0140991-7.135376,13.7822266-14.5322266,20.3083496-22.1902466 c4.138855-4.8566895,8.1784058-9.8185425,12.1192627-14.8844604c10.5825806-13.6079712,20.5509033-28.0922241,29.895874-43.4446411 c0.3294678-0.5401001,0.5646973-1.1118164,0.7062378-1.6967773c0.5545654-2.2702637-0.2695923-4.7178955-2.187561-6.173584 l-0.0022583,0.0008545c-3.9092407-3.1801758-7.7491455-6.578064-11.5241089-10.1897583 c-14.0828857-13.4821167-27.2271118-29.973999-39.4225464-49.4708862 c-22.5726929-36.0740356-32.2860107-75.9850464-54.6883545-112.1295166 c-4.5968628-7.4168701-9.727417-14.6735229-15.6138306-21.7093506c-4.8045044-5.7417603-11.4891357-13.0142212-18.425415-19.7987061 c0.9082031,10.4511719,1.967041,24.4864502,2.5576782,41.4417725c0.6628418,19.0128784,0.7406616,41.7028809-0.6295776,67.1322021 c0.1935425,7.7911377,0.4230957,15.842041,0.6916504,24.1470947c0.9256592,28.7970581,2.2947388,60.6901245,4.1083374,95.6810303 c2.7003784,52.0472412,6.3811646,110.9465942,11.0429688,176.7012939c-1.0125732,0.6383057-2.0206299,1.2794189-3.0241699,1.9264526 l-0.1083374-0.0852051l-0.1082764-0.0838013l-0.0462646-0.0374756l-0.0620728-0.0448608l-0.1082764-0.0837402l-0.3277588-0.2471313 l-0.1083374-0.0809326l-0.111145-0.0809326l-0.0084229-0.0073242l-0.1010132-0.0736084l-0.5545044-0.395752l-0.0795288-0.0563965 l-0.0332642-0.0217285l-0.5601807-0.3827515l-0.111145-0.076416l-0.041687-0.0259399l-0.0722046-0.0476685l-0.112854-0.0736084 l-0.5703125-0.3652954l-0.6904297-0.4230347l-0.0739136-0.043457l-0.041748-0.0245361l-0.1156616-0.0679932l-0.1167603-0.0679932 l-0.4360352-0.2498779l-0.0304565-0.0172119l-0.0344238-0.0203247l-0.0834961-0.0462036l-0.1167603-0.0634766l-0.1167603-0.0648804 l-0.2352295-0.1286011l-0.1184692-0.0634766l-0.1100464-0.0592041l-0.0084229-0.0028687l-0.1167603-0.0634155l-0.4778442-0.2440186 l-0.1184082-0.0592041l-0.069397-0.0361328l-0.0490723-0.0245361l-0.1212769-0.0592041l-0.359375-0.1748657l-0.1212769-0.0578613 l-0.1195679-0.0563965l-0.0259399-0.0129395l-0.0953369-0.043457l-0.1196289-0.0549927 c-5.0143433-70.8869019-8.878418-133.7635498-11.5963135-188.6309814 c-1.9404907-39.1946411-3.2954712-74.3023071-4.0649414-105.324707c0.0304565-0.5703125,0.0609131-1.1395264,0.0897217-1.7084351 c1.1157837-21.6255493,1.1879883-41.2338257,0.7564697-58.2424316c-0.625061-24.5687866-2.3043823-43.711731-3.4122925-55.6820679 c-0.7366943-2.0967407-1.7808838-3.9811401-3.24646-5.6853027c-4.2504883-4.9359131-12.0599976-8.3369141-26.3205566-10.8872681 c0.0704956-0.5011597,0.1381836-1.0066528,0.2019653-1.5148926c16.1147461,2.0866089,25.9781494,4.7974243,31.9971924,8.7007446 c11.5917969,6.8291016,30.007019,25.671936,40.1072998,37.7432251 c34.5706787,41.3131104,43.0982666,90.3592529,70.3022461,133.8370972 c15.4632568,24.7219238,32.4507446,44.6114502,50.9465942,59.6621094 C817.338501,460.6375732,818.0187988,464.0340576,816.4071655,466.6768799z M469.0851135,419.2164307 c-12.5073242-53.6227417-15.3825684-117.6242065-8.630249-191.9944458c0.2990112-3.2910156-2.1300659-6.2040405-5.4227295-6.5027466 c-0.3497314-0.0332642-0.6932983-0.0332642-1.031189-0.0056152c-2.6862793,0.222229-5.324585,0.5054321-7.9138184,0.8447266 c0.1444092,0.6109619,0.1934814,1.2562866,0.1342773,1.9176636c-6.7529297,74.3703003-3.8759766,138.3717651,8.630249,191.9945068 c12.388855,53.1158447,34.2366943,95.9667358,65.5393982,128.5446777c2.1820068,2.1935425,2.3483887,5.736084,0.3035278,8.1259766 c-1.4165039,1.6607056-2.8577881,3.3010864-4.319397,4.9172974l0.3322754,0.4216309 c7.1280518,4.5346069,10.6920776,6.800293,10.6920776,6.800293l-0.0045166,0.0056763 c2.5779419-2.7351074,5.0888062-5.5352783,7.5324707-8.3989868c2.0449219-2.3901367,1.8790283-5.9324341-0.3045654-8.1259155 C503.3201599,515.1834717,481.4740295,472.3323364,469.0851135,419.2164307z M459.3559875,602.880188h-0.0016479 c-5.9586792,3.4441528-12.1248779,6.6905518-18.5004272,9.7376099c0.9561768,1.2923584,1.8959351,2.5559082,2.8143311,3.7949829 c1.7645264,2.3800049,4.9590454,3.0744019,7.5150146,1.777771c4.9765625-2.2832031,9.8284302-4.6859741,14.5567627-7.2061157 v-0.0003052c26.0328979-14.4859619,46.5837708-30.0518799,61.6549988-46.6980591l-10.687561-6.8059692 C502.3561096,572.2475586,483.2385559,587.381958,459.3559875,602.880188z"/></g><g id="change4_8"><path fill="#ffca6f" d="M1215.4932861,874.6932983c-5.9958496,10.5132446-13.7495117,19.5575562-23.2547607,27.1275635 c-9.4661865,7.539856-20.6693115,13.6209106-33.6003418,18.2304688c-1.5568848,0.5488892-3.2678223-0.2670898-3.8166504-1.8254395 c-0.5489502-1.5580444,0.2684326-3.2695312,1.8265381-3.8167114c12.2935791-4.3856201,22.9195557-10.1448975,31.8657227-17.2714844 c8.9117432-7.0964966,16.1723633-15.5631104,21.7801514-25.3932495l0.0004883-0.0002441 c0.8146973-1.43396,2.6411133-1.9379883,4.0739746-1.1248779 C1215.8024902,871.4338989,1216.3078613,873.2590942,1215.4932861,874.6932983z M1071.2785645,804.6105347h0.0004883 c-7.0749512,8.2949219-12.8552246,16.9784546-17.3365479,26.0314941 c-4.4914551,9.0792847-7.6768799,18.5336914-9.5513916,28.3508301c-0.3092041,1.62323,0.7536621,3.1928101,2.3753662,3.5019531 c1.6229248,0.3088379,3.1928711-0.7553101,3.5020752-2.3771362c1.7746582-9.2998657,4.7902832-18.244873,9.0357666-26.8299561 c4.2601318-8.6082764,9.7680664-16.8775024,16.5175781-24.7896729c1.0717773-1.2548218,0.9256592-3.1437378-0.3277588-4.215271 S1072.3515625,803.3571167,1071.2785645,804.6105347z M1112.0256348,765.7002563 c-1.1508789-1.1812744-3.0439453-1.2075195-4.2268066-0.0578613l-24.3479004,23.7860718 c-1.182373,1.149353-1.2072754,3.0441895-0.0576172,4.2268677c1.1507568,1.1812134,3.0439453,1.2074585,4.2268066,0.0578003 l24.3479004-23.7860718C1113.1503906,768.77771,1113.175293,766.8828735,1112.0256348,765.7002563z M1130.4909668,1053.079834 c-1.6210938-0.3164062-3.1967773,0.7421875-3.5131836,2.3638916l-0.0004883,0.0006104 c-3.5556641,17.9300537-11.0491943,25.079834-18.5224609,32.2078857 c-4.9257812,4.7006836-9.8515625,9.3996582-13.8967285,16.8961182c-2.6367188,4.8881836-4.5043945,10.5822754-5.5987549,17.0664062 c-1.071167,6.369873-1.3990479,13.5241699-0.9832764,21.4580078c0.0841064,1.6477051,1.4904785,2.9155273,3.1381836,2.8317871 s2.9140625-1.4903564,2.8317871-3.1381836c-0.3942871-7.4935303-0.0908203-14.2202148,0.9127197-20.1697998 c0.9803467-5.8255615,2.6400146-10.9016113,4.9664307-15.213623c3.5927734-6.6604004,8.1721191-11.0316162,12.7514648-15.3986816 c8.1677246-7.7908936,16.3546143-15.6037598,20.2796631-35.3922119 C1133.1711426,1054.9702148,1132.112793,1053.3959961,1130.4909668,1053.079834z M954.9481812,1020.142334 c-4.9506836-8.3369141-11.2161865-15.2900391-18.786499-20.8457031c-1.3302002-0.9748535-3.2012939-0.6860352-4.1777344,0.6442871 c-0.9747314,1.329834-0.6859131,3.201416,0.644165,4.1762695v-0.0002441 c6.9057617,5.0690918,12.6314697,11.4287109,17.1691895,19.0695801c4.5793457,7.7130127,7.9599609,16.7414551,10.1374512,27.0742188 c0.3352051,1.6162109,1.9208984,2.6544189,3.5352783,2.3193359c1.6156006-0.335083,2.6541748-1.9194336,2.3189697-3.5352783 C963.4700317,1038.0463867,959.8552856,1028.4069824,954.9481812,1020.142334z M1001.6566772,1138.8035889 c3.7185059,7.7375488,6.1549072,16.7142334,7.3000488,26.9196777c0.1804199,1.6407471,1.6589355,2.8248291,3.3010254,2.644165 c1.6405029-0.1789551,2.824585-1.6591797,2.644043-3.2995605c-1.2172852-10.8586426-3.8426514-20.4776611-7.8602295-28.8405762 c-4.0582275-8.4434814-9.5283203-15.5904541-16.4036865-21.4348145c-1.2607422-1.065918-3.1499023-0.9084473-4.2155762,0.3508301 c-1.0638428,1.260498-0.9082031,3.1494141,0.3526611,4.215332 C993.0133667,1124.661377,997.975769,1131.144165,1001.6566772,1138.8035889z M941.1715698,830.0297241h-0.0006104 c5.7578125,3.8240356,10.3817139,8.7844849,13.8607178,14.8700562c3.527832,6.1634521,5.9020996,13.505249,7.1166992,22.0125732 c0.2312012,1.6347656,1.7492676,2.7711182,3.3823242,2.5401611c1.6347656-0.2310181,2.7714844-1.7473145,2.5401611-3.3821411 c-1.3255615-9.2769775-3.9390869-17.3278809-7.8399658-24.1439819c-3.9436035-6.8956299-9.2004395-12.5290527-15.7565918-16.8845215 c-1.3757324-0.9099121-3.2346191-0.5327759-4.1444092,0.8433228 C939.4182739,827.2613525,939.795105,829.119812,941.1715698,830.0297241z M978.2891235,909.3347778 c1.3182373,0.9933472,3.1973877,0.7321777,4.1907959-0.5864258c0.9938965-1.3182983,0.7321777-3.1970215-0.5861816-4.1907349 c-1.5986328-1.2102661-3.1455078-3.2015381-4.6369629-5.9656982c-1.6025391-2.9663086-3.1048584-6.774353-4.4981689-11.4056396 c-0.4710693-1.5825806-2.1390381-2.4837646-3.7230225-2.0130005c-1.5830078,0.4707642-2.484375,2.1384888-2.0134277,3.7227783 v0.0003052c1.5102539,5.0183105,3.1697998,9.2002563,4.9675293,12.5304565 C973.897522,904.963501,975.9988403,907.6018066,978.2891235,909.3347778z M1057.1398926,731.2669678 c1.6488037-0.043457,2.9473877-1.4182129,2.9039307-3.065918c-0.8839111-30.8893433,12.0826416-47.7755127,24.6999512-64.206543 c12.7414551-16.5928345,25.1478271-32.7525024,23.9925537-61.6837769c-0.0637207-1.6477661-1.4543457-2.9328003-3.1020508-2.8679199 c-1.6477051,0.0651245-2.9316406,1.4542847-2.8666992,3.1019897c1.0671387,26.7668457-10.6966553,42.0888062-22.7763672,57.8208618 c-13.2480469,17.2511597-26.8604736,34.9804688-25.9172363,67.9986572 C1054.1184082,730.012085,1055.4920654,731.3117676,1057.1398926,731.2669678z M806.2143555,702.0615234 c1.5507202,0.5559082,3.260498-0.2513428,3.8167114-1.8023071c2.5881348-7.1687012,5.8746338-13.2714844,9.8605957-18.2984619 c3.9306641-4.9576416,8.5473022-8.869751,13.8431396-11.729187c1.4542236-0.7810059,1.9974976-2.5949097,1.2161865-4.0491333 c-0.78125-1.4542847-2.5948486-1.9972534-4.0491333-1.2159424v0.0003052 c-6.0246582,3.2520142-11.2584229,7.6796875-15.6917114,13.2714233 c-4.3786011,5.5220337-7.9786987,12.1939697-10.7992554,20.0065308 C803.8563843,699.7957764,804.6636353,701.5055542,806.2143555,702.0615234z M871.630249,812.2398071 c-1.6217651-0.302124-3.1871948,0.7666016-3.4889526,2.3884277v0.0002441 c-1.6376343,8.6790771-4.4417725,16.0239868-8.4017944,22.0213013c-3.9075928,5.9208374-8.9664917,10.5620117-15.1733398,13.9153442 c-1.453125,0.78125-1.9974976,2.5965576-1.2161865,4.0508423c0.781311,1.4542236,2.5965576,1.9971924,4.0508423,1.2159424 c7.0936279-3.8342285,12.8712158-9.1297607,17.3264771-15.8795776c4.404541-6.6702881,7.5037231-14.7474365,9.2913818-24.2235718 C874.3222046,814.1069946,873.2532349,812.5415649,871.630249,812.2398071z M794.9937134,905.8395386 c1.5569458,0.5415649,3.262207-0.2803345,3.805481-1.8383789c1.7774658-5.0888062,4.156311-9.6394653,7.1279907-13.6395264 c2.954834-3.9786377,6.5199585-7.4388428,10.6864624-10.3688354c1.3515625-0.9487915,1.675354-2.815979,0.7265625-4.1661987 c-0.9499512-1.3501587-2.8171387-1.6751099-4.1676025-0.7248535c-4.6804199,3.288147-8.697998,7.1928711-12.0470581,11.7029419 c-3.333313,4.4840698-5.9919434,9.5657959-7.9702759,15.2296753 C792.6137695,903.5924683,793.4356689,905.2980347,794.9937134,905.8395386z M793.8085327,1174.6855469 c1.5050049,0.678833,3.2797241,0.0073242,3.958313-1.4974365c13.258728-29.3922119,9.7624512-51.5447998,6.1651001-74.3428955 c-2.5615845-16.2420654-5.1801758-32.833252-1.4598999-52.5656738c0.3018188-1.6231689-0.7655029-3.1872559-2.3884277-3.4903564 c-1.6217651-0.302124-3.1871948,0.7666016-3.4889526,2.3884277h-0.0006104 c-3.9064331,20.7116699-1.2043457,37.8272705,1.4384766,54.581665c3.4573975,21.8986816,6.8150024,43.1774902-5.7228394,70.9678955 C791.6322021,1172.2333984,792.3023682,1174.0083008,793.8085327,1174.6855469z M178.0112,685.3515625l-0.0005493-0.0002441 c6.8205566,5.1612549,12.4683838,11.1097412,16.9366455,17.842041c4.4812622,6.7484131,7.7971191,14.2938843,9.9356079,22.6192627 c0.406189,1.5958252,2.0336304,2.5604858,3.6277466,2.1546021c1.5958862-0.4072876,2.5604858-2.0350342,2.1549072-3.6292114 c-2.3134155-9.0123901-5.8937988-17.1646118-10.7298584-24.4472046 c-4.8479004-7.3057251-10.9594116-13.7478027-18.3198853-19.3163452c-1.3182983-0.9934082-3.1973267-0.7322388-4.1907349,0.5863647 C176.4311218,682.479126,176.6928406,684.3579102,178.0112,685.3515625z M275.3819885,799.0724487 c5.3533936-3.8458252,9.7562256-8.3095703,13.2034912-13.3797607c3.4483643-5.0744019,5.9281616-10.7470703,7.4343262-17.0072021 c0.3796387-1.6015015-0.6109009-3.2145386-2.2124023-3.5944824c-1.6015015-0.3813477-3.2148438,0.6094971-3.5944824,2.2124023 v0.0003052c-1.3346558,5.5482178-3.5250854,10.5679321-6.5678711,15.0418701 c-3.0427856,4.4767456-6.9616699,8.4406738-11.7520142,11.882019c-1.3369751,0.9631958-1.6421509,2.8303833-0.6786499,4.1676025 C272.1773376,799.7310181,274.0445251,800.0356445,275.3819885,799.0724487z M301.0984802,755.1886597 c1.5117798,0.6586304,3.2740479-0.032959,3.932373-1.5436401v-0.0003052 c1.520813-3.4847412,3.4438477-6.4307861,5.7561035-8.8293457c2.2744751-2.3582764,4.9590454-4.2051392,8.0452881-5.5352783 c1.519104-0.6513062,2.2208862-2.413269,1.5682373-3.9324341c-0.65271-1.519104-2.4144287-2.2208862-3.9324341-1.5681763 c-3.8139038,1.6434937-7.1455078,3.9439087-9.9891357,6.8913574c-2.8013916,2.9042969-5.1136475,6.4364624-6.9244385,10.5854492 C298.8945007,752.7683716,299.5866394,754.5286865,301.0984802,755.1886597z M167.610199,874.5599365 c0.5172729,1.5653687,2.2056885,2.4146118,3.7693481,1.897644c1.5654297-0.515625,2.4143677-2.2036743,1.897644-3.769104 c-2.8171387-8.4683228-6.6282349-15.2353516-11.4242554-20.2970581 c-4.9037476-5.1785278-10.8116455-8.5620117-17.7089844-10.1491089c-1.6099243-0.368103-3.2142334,0.6383057-3.5825806,2.2471313 c-0.3700562,1.6088257,0.6380005,3.2145386,2.2468262,3.5828857l-0.0006104-0.0003052 c5.7229004,1.3169556,10.6328735,4.1315308,14.7124634,8.4407349 C161.7142029,860.9376221,165.0785217,866.956604,167.610199,874.5599365z M128.4804382,831.6021118 c-3.5307007-1.7055664-7.135376-4.2789917-10.8031616-7.7115479c-3.7473755-3.5048218-7.581604-7.9353027-11.49646-13.2756958 c-0.9747925-1.329895-2.8464966-1.6187134-4.1777954-0.6425171c-1.3301392,0.9747925-1.6189575,2.8461914-0.6425171,4.1763916 l-0.0010986,0.0002441c4.1044312,5.6015625,8.1885376,10.3037109,12.2433472,14.09729 c4.1348877,3.8700562,8.2302856,6.7872925,12.2794189,8.7424927c1.4859009,0.7161255,3.2752075,0.0922241,3.9916382-1.3936157 C130.5918884,834.1090088,129.9679871,832.3199463,128.4804382,831.6021118z M189.5561829,1107.3439941 c1.6477661,0.0936279,3.065918-1.1625977,3.1595459-2.8103027c1.0424805-17.267334-0.6848145-32.4865723-5.1773682-45.6469727 c-4.5359497-13.2857666-11.8840332-24.4675293-22.0373535-33.5366211c-1.225769-1.0976562-3.1160889-0.9921875-4.2138672,0.2338867 c-1.0960693,1.2260742-0.9922485,3.116333,0.2352295,4.2124023l0.0011597,0.0002441 c9.3618774,8.3642578,16.1463623,18.7026367,20.34729,31.0095215c4.2454224,12.432373,5.8717651,26.8934326,4.8766479,43.3765869 C186.6521301,1105.8319092,187.9084167,1107.2486572,189.5561829,1107.3439941z M204.1507263,1177.9968262 c1.3634033-0.9284668,1.7142944-2.7915039,0.7841187-4.1546631c-3.2289429-4.7032471-5.8283691-10.4221191-7.7937012-17.1544189 c-1.9941406-6.8349609-3.3474121-14.7443848-4.052002-23.7209473c-0.1286011-1.6477051-1.5709839-2.8797607-3.21875-2.7512207 c-1.6477661,0.1298828-2.8797607,1.5710449-2.7511597,3.2188721h-0.0005493 c0.7349854,9.3345947,2.1644287,17.6412354,4.2860718,24.9136963c2.1531982,7.3708496,5.0171509,13.661499,8.5895996,18.864502 C200.9245911,1178.5759277,202.7861633,1178.925293,204.1507263,1177.9968262z M306.1731262,1038.447998 c-1.6477051,0.0246582-2.9631958,1.3835449-2.9372559,3.03125l-0.0006104,0.0003662 c0.1619263,10.0811768-0.9256592,18.9105225-3.2706299,26.4805908c-2.2976074,7.427002-5.8052368,13.6352539-10.5189209,18.6187744 c-1.1310425,1.1956787-1.0791016,3.0831299,0.1167603,4.2138672c1.1976318,1.1322021,3.085144,1.0784912,4.2155762-0.1170654 c5.3618164-5.6680908,9.3303223-12.6577148,11.8981323-20.9599609c2.5271606-8.1577148,3.7027588-17.6051025,3.5296021-28.3304443 C309.1798401,1039.7362061,307.8208923,1038.4221191,306.1731262,1038.447998z M319.9728699,992.2001953 c-1.3312988-0.9748535-3.2030029-0.6860352-4.1777954,0.644165c-2.6642456,3.6204834-4.8597412,7.6507568-6.5780029,12.0856934 c-1.7069702,4.4017334-2.9463501,9.1876221-3.710144,14.3428955c-0.2380371,1.6347656,0.894104,3.1567383,2.5272217,3.3937988 c1.6347656,0.2382812,3.1572876-0.8939209,3.3953247-2.5273438h-0.0005493 c0.7006226-4.7409668,1.8243408-9.0979004,3.3592529-13.0561523c1.5236206-3.9267578,3.4675293-7.4995117,5.8272095-10.7053223 C321.5918274,995.0480957,321.303009,993.1749268,319.9728699,992.2001953z M780.1368408,1196.123291 c-1.5507202-0.567627-3.2706299,0.2294922-3.8381348,1.7805176v0.0002441 c-1.4226685,3.8413086-2.3844604,8.0334473-2.8797607,12.5651855c-0.491333,4.480957-0.5257568,9.2711182-0.1055298,14.3688965 c0.1359863,1.6477051,1.5828857,2.8752441,3.2306519,2.739624c1.6477661-0.1373291,2.8752441-1.5843506,2.7393188-3.2320557 c-0.3914795-4.7526855-0.3638306-9.170166,0.0806274-13.2441406c0.4406128-4.0146484,1.2924194-7.7332764,2.5531616-11.1384277 C782.4852295,1198.4121094,781.687561,1196.6906738,780.1368408,1196.123291z M1186.0588379,1274.3449707 c-13.7940674-6.7050781-28.3706055-9.7983398-43.71875-9.2827148c-1.6477051,0.0518799-2.9418945,1.4311523-2.8911133,3.0788574 s1.4311523,2.9428711,3.0788574,2.8911133c14.3618164-0.4836426,28.0085449,2.4160156,40.9316406,8.697998 c1.4869385,0.7175293,3.2751465,0.0935059,3.9926758-1.392334 C1188.1685791,1276.8503418,1187.5463867,1275.0627441,1186.0588379,1274.3449707z M1142.5279541,1271.0322266 c-0.0001221,0-0.0001221,0-0.0001221,0c-0.0002441,0-0.0002441,0-0.0004883,0H1142.5279541z M1219.3382568,1291.3637695 c-2.1848145-1.0039062-4.3944092-2.1115723-6.6226807-3.3200684c-2.2705078-1.2275391-4.447998-2.4968262-6.5231934-3.7965088 c-1.394043-0.8707275-3.2363281-0.446167-4.1072998,0.9488525c-0.8709717,1.3935547-0.446167,3.2363281,0.9471436,4.1069336 h0.0004883c2.3399658,1.4658203,4.6274414,2.8044434,6.8482666,4.0074463 c2.2615967,1.2247314,4.5906982,2.3886719,6.9780273,3.4862061c1.4998779,0.6845703,3.2706299,0.0244141,3.956665-1.4760742 C1221.4998779,1293.8200684,1220.8387451,1292.0482178,1219.3382568,1291.3637695z M1022.2435913,1304.3936768 c-8.1490479-0.1412354-15.9268799,0.8927002-23.3222656,3.0992432c-7.409668,2.2081299-14.449707,5.5959473-21.1101074,10.1520996 c-1.3632812,0.9285889-1.7142334,2.7900391-0.7839355,4.1547852c0.9284668,1.364502,2.7910156,1.7138672,4.154541,0.7854004 c6.1436768-4.2039795,12.6291504-7.3259277,19.4481201-9.3579102c6.8336182-2.0389404,14.0106201-2.9936523,21.5201416-2.8637695 c1.6477051,0.0246582,3.0061646-1.2895508,3.0308228-2.9372559 C1025.2070312,1305.7785645,1023.8930054,1304.4196777,1022.2435913,1304.3936768z M1057.7502441,1308.857666 c-3.2651367-1.6982422-7.0852051-2.9287109-11.4519043-3.6796875c-1.6274414-0.2757568-3.175415,0.8188477-3.4528809,2.4462891 c-0.2758789,1.6274414,0.8190918,3.1756592,2.4465332,3.4528809c3.736084,0.6411133,6.9705811,1.6765137,9.6958008,3.0947266 c2.6383057,1.375,4.7943115,3.1020508,6.4567871,5.1816406c1.0283203,1.2866211,2.9056396,1.4946289,4.1906738,0.4678955 c1.2867432-1.0280762,1.4960938-2.9053955,0.4676514-4.1921387 C1063.8876953,1312.8623047,1061.1020508,1310.6049805,1057.7502441,1308.857666z M851.3128662,1284.1791992 c-9.3596191-0.9372559-18.7694702-1.0585938-28.2137451-0.3596191c-9.4487305,0.696167-18.982666,2.215332-28.5916748,4.5490723 c-1.6015015,0.387207-2.5892334,2.0030518-2.2005615,3.6044922c0.3869629,1.6030273,2.0031128,2.5893555,3.6046143,2.2023926 l-0.0005493-0.0003662c9.2507935-2.2468262,18.4558105-3.7113037,27.6084595-4.3856201 c9.1525879-0.6772461,18.227356-0.5632324,27.2084961,0.3364258c1.6420898,0.1589355,3.105957-1.0397949,3.2650146-2.6816406 C854.1537476,1285.803833,852.9533081,1284.3393555,851.3128662,1284.1791992z M887.4940796,1292.4885254l-16.8555298-4.1213379 c-1.6014404-0.3869629-3.2176514,0.5993652-3.6046143,2.2021484c-0.3869629,1.6018066,0.5990601,3.2177734,2.2022705,3.6047363 l16.8554688,4.1213379c1.6015015,0.3869629,3.2176514-0.6008301,3.6046143-2.2022705 C890.083313,1294.4914551,889.097229,1292.8754883,887.4940796,1292.4885254z M510.6202087,1292.1523438 c-11.9589844,3.5667725-23.4047241,5.6274414-34.3178711,6.1762695 c-10.8799438,0.5476074-21.2719116-0.3999023-31.1611938-2.8417969c-1.6015015-0.3930664-3.2250366,0.5876465-3.6176147,2.1906738 c-0.3909302,1.6014404,0.5877686,3.2229004,2.190979,3.6158447c10.4483643,2.5794678,21.4061279,3.581543,32.8709717,3.005249 c11.427124-0.574707,23.34552-2.713623,35.7445374-6.4118652c1.5828857-0.4693604,2.484314-2.1385498,2.0133057-3.7214355 C513.8722534,1292.5827637,512.2042236,1291.6816406,510.6202087,1292.1523438z M540.2831421,1282.0852051l-13.4849854,4.6818848 c-1.5580444,0.5341797-2.3855591,2.2355957-1.8496704,3.7935791c0.5341797,1.5570068,2.2355347,2.3841553,3.7935791,1.8499756 l13.4849854-4.6817627c1.5563354-0.5356445,2.3839111-2.2354736,1.8496704-3.7935791 C543.5408325,1282.3769531,541.8411865,1281.5493164,540.2831421,1282.0852051z M252.4014587,1305.5004883 c-9.7200928,3.4296875-19.1513672,5.4182129-28.289856,5.9626465c-9.0968018,0.5415039-17.9334717-0.3466797-26.5011597-2.6601562 c-1.5958252-0.4274902-3.2390747,0.5227051-3.664978,2.1185303c-0.4259033,1.5941162,0.5229492,3.2376709,2.1187744,3.6635742 v0.0003662c9.1757812,2.4780273,18.6448364,3.4282227,28.3970947,2.8479004 c9.7127686-0.5808105,19.6946411-2.6776123,29.9320068-6.2893066c1.5580444-0.548584,2.3754272-2.2600098,1.8265381-3.8181152 C255.671051,1305.769043,253.9595642,1304.9516602,252.4014587,1305.5004883z M285.4355164,1292.7429199l-17.2294922,5.6191406 c-1.5693359,0.5095215-2.4290161,2.197998-1.9190674,3.7675781s2.1977539,2.4287109,3.7676392,1.9190674v0.0003662 l17.2294922-5.6176758c1.5693359-0.5097656,2.4290161-2.197998,1.9190674-3.7677002 C288.6932068,1293.09375,287.0054016,1292.2332764,285.4355164,1292.7429199z"/></g></svg>