<?xml version="1.0" encoding="UTF-8" standalone="no"?><svg xmlns="http://www.w3.org/2000/svg" xmlns:xlink="http://www.w3.org/1999/xlink" contentScriptType="text/ecmascript" fill="#000000" width="108" zoomAndPan="magnify" contentStyleType="text/css" viewBox="0.0 0.0 108.0 126.0" height="126" preserveAspectRatio="xMidYMid meet" version="1"><g><g><g><path fill="#e7f2f1" d="M105.84,35.59l-5.41-7.32c-0.95-1.28-2.37-2.14-3.93-2.39v-4.06c0-1.23-1-2.22-2.24-2.22h-6 c-1.24,0-2.25,0.99-2.25,2.22v3.91c-0.95-0.14-1.86-0.51-2.65-1.08l-8.34-5.97c-1.04-0.75-2.3-1.15-3.58-1.15H51.16 c-3.36,0-6.08,2.69-6.08,5.99v59.11h-4.2v-37.2c-0.03-1.11-0.15-2.53-0.5-4.13c-0.14-0.66-0.32-1.35-0.55-2.07 c-0.89-2.75-2.16-4.83-3.15-6.2h3.15L30.39,10.3V1h-9.45H11.5v9.3L2.05,33.03H5.2c-0.99,1.37-2.26,3.45-3.15,6.2 c-0.23,0.72-0.41,1.41-0.55,2.07c-0.35,1.6-0.47,3.02-0.5,4.13v52.52c0,3.52,2.9,6.38,6.49,6.38h13.45h11.55v12.4v3.43 c0,2.67,2.19,4.84,4.91,4.84h7.68h7.68c2.71,0,4.91-2.17,4.91-4.84v-15.83h43.25c3.36,0,6.08-2.68,6.08-5.99V39.11 C107,37.85,106.59,36.62,105.84,35.59z M74.1,29.93H51.43c-0.61,0-1.1-0.48-1.1-1.08v-4.03c0-0.6,0.49-1.09,1.1-1.09h20.43 c0.32,0,0.63,0.14,0.84,0.38c0.56,0.67,1.21,1.58,1.77,2.72c0.29,0.6,0.51,1.18,0.68,1.71C75.37,29.23,74.83,29.93,74.1,29.93z"/></g><g><g><path fill="#a8dee1" d="M34.58,49.57v33.94c-1.27,0.87-2.09,2.32-2.09,3.96v3.43v5.17H20.94H7.3v-46.5h13.64H34.58z"/></g><g><path fill="#ceabd8" d="M100.7,38.2v58.9H57.67v-6.2v-3.43c0-0.64-0.13-1.25-0.36-1.81h0.01 c4.22-0.57,7.29-3.17,7.7-6.13c0.24-1.74-0.79-3.24-1.36-4.13c2.42-1.08,4.45-2.92,4.51-5.17c0.05-1.83-1.23-3.3-2.02-4.05 c1.65-1.79,2.74-3.95,3.07-6.28c0.61-4.38-1.4-9.88-5.25-11.37c-0.34-0.13-2.26-0.83-4.2,0c-2.21,0.96-3.99,3.74-3.15,6.2 c0.33,0.96,1.04,1.83,1.9,2.42l-0.01,0.01c-0.47,0.72-1.38,1.88-2.94,2.74c-1.78,0.98-3.45,1.05-4.19,1.03V38.2H100.7z"/></g><g><path fill="#6fceae" d="M96.5,21.82v4.06c-0.33-0.05-0.66-0.08-0.99-0.08h-8.57c-0.31,0-0.62-0.02-0.93-0.07v-3.91 c0-1.23,1.01-2.22,2.25-2.22h6C95.5,19.6,96.5,20.59,96.5,21.82z"/></g><g><path fill="#c3ddda" d="M89.47,62.68l-1.96,0.65c-0.5,0.17-0.89,0.53-1.08,0.98c-1.46-0.93-2.2-2.42-1.86-3.64 c0.05-0.17,0.4-1.35,1.53-1.69c0.76-0.23,1.43,0.06,1.63,0.15h0.01C87.5,60.4,88.17,61.87,89.47,62.68z"/></g><g><path fill="#c3ddda" d="M94.7,46.44c0.34,1.22-0.39,2.71-1.85,3.63c-0.2-0.44-0.58-0.79-1.08-0.96l-1.97-0.66 c1.3-0.81,1.97-2.28,1.74-3.55c0.2-0.09,0.87-0.37,1.63-0.15C94.3,45.09,94.65,46.27,94.7,46.44z"/></g><g><path fill="#c3ddda" d="M79.54,52.01l-1.97,0.65c-0.5,0.17-0.88,0.53-1.08,0.97c-1.46-0.92-2.19-2.42-1.85-3.63 c0.05-0.17,0.4-1.35,1.53-1.69c0.76-0.23,1.43,0.06,1.63,0.15C77.57,49.73,78.24,51.2,79.54,52.01z"/></g><g><path fill="#e7f2f1" d="M81.36,47.95c0.9,1.54,0.41,3.12,0.34,3.34l-0.1,0.32c-0.32-0.07-0.67-0.06-1.01,0.05l-1.05,0.35 c-1.3-0.81-1.97-2.28-1.74-3.55c0.01-0.07,0.02-0.13,0.04-0.2c0.01-0.01,0.01-0.03,0.01-0.04c0.46-1.6,2.57-1.8,3.46-0.34 C81.33,47.9,81.34,47.93,81.36,47.95z"/></g><g><path fill="#e7f2f1" d="M91.29,58.62c0.91,1.54,0.42,3.12,0.35,3.34l-0.11,0.32c-0.33-0.07-0.67-0.06-1.01,0.05 l-1.05,0.35c-1.3-0.81-1.97-2.28-1.73-3.55c0.01-0.07,0.02-0.13,0.04-0.2c0-0.01,0-0.03,0.01-0.04c0.45-1.6,2.56-1.8,3.46-0.34 C91.26,58.57,91.28,58.6,91.29,58.62z"/></g><g><path fill="#e7f2f1" d="M91.54,44.9c0.23,1.27-0.44,2.74-1.74,3.55l-1.05-0.35c-0.34-0.11-0.68-0.12-1.01-0.05l-0.1-0.32 c-0.07-0.22-0.56-1.8,0.34-3.34c0.02-0.02,0.03-0.05,0.04-0.07c0.9-1.45,3.01-1.26,3.47,0.34c0,0.02,0,0.03,0.01,0.04 C91.52,44.77,91.53,44.83,91.54,44.9z"/></g><g><path fill="#604533" d="M87.74,48.05c0.33-0.07,0.67-0.06,1.01,0.05l1.05,0.35l1.97,0.66c0.5,0.17,0.88,0.52,1.08,0.96 c0.19,0.4,0.22,0.87,0.07,1.33l-0.04,0.11c-0.33,0.95-1.37,1.46-2.33,1.14l-3.02-1.01c-0.96-0.32-1.48-1.35-1.15-2.29l0.04-0.12 C86.63,48.62,87.14,48.19,87.74,48.05z"/></g><g><path fill="#604533" d="M86.43,64.31c0.19-0.45,0.58-0.81,1.08-0.98l1.96-0.65l1.05-0.35c0.34-0.11,0.68-0.12,1.01-0.05 c0.6,0.13,1.12,0.56,1.32,1.18l0.04,0.11c0.33,0.95-0.19,1.98-1.15,2.3l-3.02,1c-0.96,0.32-2-0.18-2.32-1.13l-0.04-0.11 C86.2,65.18,86.24,64.71,86.43,64.31z"/></g><g><path fill="#604533" d="M76.49,53.63c0.2-0.44,0.58-0.8,1.08-0.97l1.97-0.65l1.05-0.35c0.34-0.11,0.69-0.12,1.01-0.05 c0.6,0.13,1.12,0.56,1.32,1.18l0.04,0.11c0.33,0.95-0.19,1.98-1.15,2.3l-3.02,1c-0.96,0.32-2-0.18-2.33-1.13l-0.04-0.11 C76.27,54.51,76.3,54.03,76.49,53.63z"/></g><g><path fill="#ffc05a" d="M63.66,75.4c0.57,0.89,1.6,2.39,1.36,4.13c-0.41,2.96-3.48,5.56-7.7,6.13h-0.01 c-0.64-1.57-2.09-2.73-3.84-2.97c-0.23-0.04-0.47-0.06-0.71-0.06h-1.38v-9.3c0.72,0.67,3.95,3.48,8.39,3.1 C61.02,76.33,62.39,75.97,63.66,75.4z"/></g><g><path fill="#ffc05a" d="M60.84,57.99c0.12,0.87,0.26,3.02-1.07,5.01c-1.67,2.5-4.99,3.74-8.39,3.1v-5.17 c0.74,0.02,2.41-0.05,4.19-1.03c1.56-0.86,2.47-2.02,2.94-2.74l0.01-0.01C59.23,57.66,60.05,57.97,60.84,57.99z"/></g><g><path fill="#aba9a0" d="M66.15,66.18c0.79,0.75,2.07,2.22,2.02,4.05c-0.06,2.25-2.09,4.09-4.51,5.17 c-1.27,0.57-2.64,0.93-3.89,1.03c-4.44,0.38-7.67-2.43-8.39-3.1V66.1c3.4,0.64,6.72-0.6,8.39-3.1c1.33-1.99,1.19-4.14,1.07-5.01 c-0.79-0.02-1.61-0.33-2.32-0.84c-0.86-0.59-1.57-1.46-1.9-2.42c-0.84-2.46,0.94-5.24,3.15-6.2c1.94-0.83,3.86-0.13,4.2,0 c3.85,1.49,5.86,6.99,5.25,11.37C68.89,62.23,67.8,64.39,66.15,66.18z"/></g><g><path fill="#86cacf" d="M107,39.11v59.23c0,3.31-2.72,5.99-6.08,5.99H57.67V97.1h43.03V38.2H51.38v22.73v5.17v7.23v9.3 h-2.1h-4.2V23.52c0-3.3,2.72-5.99,6.08-5.99h20.28c1.28,0,2.54,0.4,3.58,1.15l8.34,5.97c0.79,0.57,1.7,0.94,2.65,1.08 c0.31,0.05,0.62,0.07,0.93,0.07h8.57c0.33,0,0.66,0.03,0.99,0.08c1.56,0.25,2.98,1.11,3.93,2.39l5.41,7.32 C106.59,36.62,107,37.85,107,39.11z M74.1,29.93c0.73,0,1.27-0.7,1.05-1.39c-0.17-0.53-0.39-1.11-0.68-1.71 c-0.56-1.14-1.21-2.05-1.77-2.72c-0.21-0.24-0.52-0.38-0.84-0.38H51.43c-0.61,0-1.1,0.49-1.1,1.09v4.03 c0,0.6,0.49,1.08,1.1,1.08H74.1z"/></g><g><path fill="#e15c63" d="M57.67,104.33v15.83c0,2.67-2.2,4.84-4.91,4.84h-7.68H37.4c-2.72,0-4.91-2.17-4.91-4.84v-3.43 h15.74V97.1H32.49v-1.03V90.9h4.19h4.2h4.2h4.2h4.2h4.19v6.2V104.33z"/></g><g><path fill="#4aaf8f" d="M57.67,87.47v3.43h-4.19l-0.01-8.21c1.75,0.24,3.2,1.4,3.84,2.97 C57.54,86.22,57.67,86.83,57.67,87.47z"/></g><g><path fill="#6fceae" d="M53.47,82.69l0.01,8.21h-4.2v-8.27h2.1h1.38C53,82.63,53.24,82.65,53.47,82.69z"/></g><g><path fill="#4aaf8f" d="M45.08 82.63H49.28V90.89999999999999H45.08z"/></g><g><path fill="#6fceae" d="M48.23 97.1L48.23 116.73 32.49 116.73 32.49 104.33 32.49 97.1z"/></g><g><path fill="#6fceae" d="M40.88 82.63H45.080000000000005V90.89999999999999H40.88z"/></g><g><path fill="#4aaf8f" d="M40.88,82.63v8.27h-4.2v-8.2v-0.01c0.23-0.04,0.47-0.06,0.72-0.06H40.88z"/></g><g><path fill="#6fceae" d="M30.39 10.3L39.83 33.03 36.68 33.03 20.94 33.03 5.2 33.03 2.05 33.03 11.5 10.3 20.94 10.3z"/></g><g><path fill="#6fceae" d="M36.68,82.7v8.2h-4.19v-3.43c0-1.64,0.82-3.09,2.09-3.96c0.61-0.43,1.32-0.72,2.1-0.82V82.7z"/></g><g><path fill="#4aaf8f" d="M30.39 1L30.39 10.3 20.94 10.3 11.5 10.3 11.5 1 20.94 1z"/></g><g><path fill="#4aaf8f" d="M30.39,68c-0.02,0.38-0.22,3.94-3.39,6.08c-3.4,2.28-7.1,0.86-7.39,0.75 c0.11-0.52,0.89-4.13,4.44-6.04C26.92,67.26,29.7,67.84,30.39,68z"/></g><g><path fill="#ffc05a" d="M26.45,57.21c0.63,0.58,1.3,0.93,1.84,1.14c-0.54,0.21-1.21,0.56-1.84,1.14 c-1.85,1.69-1.85,3.99-1.83,4.54h-0.01c0.02-0.55,0.01-2.85-1.83-4.54c-0.63-0.58-1.31-0.93-1.84-1.14 c0.53-0.21,1.21-0.56,1.84-1.14c1.66-1.53,1.83-3.57,1.83-4.34h0.01C24.62,53.65,24.77,55.68,26.45,57.21z"/></g><g><path fill="#ffc05a" d="M26.45,85.11c0.63,0.58,1.3,0.93,1.84,1.14c-0.54,0.21-1.21,0.56-1.84,1.14 c-1.85,1.69-1.85,3.99-1.83,4.54h-0.01c0.02-0.55,0.01-2.85-1.83-4.54c-0.63-0.58-1.31-0.93-1.84-1.14 c0.53-0.21,1.21-0.56,1.84-1.14c1.66-1.53,1.83-3.57,1.83-4.34h0.01C24.62,81.55,24.77,83.58,26.45,85.11z"/></g><g><path fill="#4aaf8f" d="M19.17,66.51c1.88,4.03,0.52,7.93,0.38,8.3c-0.44-0.15-3.19-1.11-4.79-4.55 c-1.88-4.03-0.52-7.93-0.38-8.29C14.82,62.11,17.58,63.07,19.17,66.51z"/></g></g><g><g><g><g><path fill="#d14b62" d="M57.67,104.33v15.83c0,2.67-2.2,4.84-4.91,4.84h-7.68H37.4c-2.68,0-4.84-2.1-4.9-4.71 c0.48,0.87,8.96,2.78,15.95-3.31c4.73-4.12,8.77-11.88,9.22-26.08v6.2v3.01V104.33z"/></g><g><path fill="#80bebf" d="M105.84,35.59l-5.41-7.32c-0.95-1.28-2.37-2.14-3.93-2.39c0.6,4.36,1.01,8.46,1.23,12.32h2.97 v58.9H71.94c-7.78,3.29-14.27,3.01-14.27,3.01v4.22h43.25c3.36,0,6.08-2.68,6.08-5.99V39.11 C107,37.85,106.59,36.62,105.84,35.59z"/></g><g><path fill="#bc9dc6" d="M100.7,38.2v58.9H71.94c12.43-5.26,28.13-19.65,25.79-58.9H100.7z"/></g><g><path fill="#9dcece" d="M24.62,80.77h-0.01c0,0.77-0.17,2.81-1.83,4.34c-0.57,0.52-1.17,0.86-1.67,1.07 c2.13-3.14,4.15-7.1,5.88-12.1H27c3.17-2.14,3.37-5.7,3.39-6.08c-0.25-0.06-0.8-0.17-1.53-0.22 c1.3-5.15,2.32-11.17,2.95-18.21h2.77v33.94c-1.27,0.87-2.09,2.32-2.09,3.96v3.43v5.17H20.94H10.09 c3.41-1.61,7.34-4.53,10.94-9.78c0.51,0.21,1.15,0.55,1.75,1.1c1.84,1.69,1.85,3.99,1.83,4.54h0.01 c-0.02-0.55-0.02-2.85,1.83-4.54c0.63-0.58,1.3-0.93,1.84-1.14c-0.54-0.21-1.21-0.56-1.84-1.14 C24.77,83.58,24.62,81.55,24.62,80.77z"/></g><g><g><path fill="#d6eae8" d="M40.38,41.3c-0.14-0.66-0.32-1.35-0.55-2.07c-0.89-2.75-2.16-4.83-3.15-6.2h-4.19 c0,4.43-0.13,8.55-0.38,12.4c-0.08,1.42-0.18,2.8-0.3,4.14h2.77v33.94c0.61-0.43,1.32-0.72,2.1-0.82 c0.23-0.04,0.47-0.06,0.72-0.06h3.48v-37.2C40.85,44.32,40.73,42.9,40.38,41.3z"/></g><g><path fill="#d6eae8" d="M10.09,96.07C4.97,98.48,1,97.95,1,97.95c0,3.52,2.9,6.38,6.49,6.38h13.45h11.55V97.1v-1.03 H20.94H10.09z"/></g></g></g></g></g></g><g fill="#3a322b"><path fill="inherit" d="M18.149,75.287c-0.891,1.462-1.68,2.99-2.339,4.564c-1.003,2.392-1.73,4.899-2.163,7.453 c-0.092,0.544,0.274,1.061,0.819,1.153c0.057,0.01,0.112,0.014,0.168,0.014c0.479,0,0.902-0.345,0.985-0.833 c0.407-2.404,1.092-4.763,2.034-7.014c0.669-1.593,1.478-3.137,2.396-4.606c0.622,0.169,1.539,0.351,2.623,0.351 c1.454,0,3.196-0.329,4.883-1.463c3.485-2.345,3.802-6.131,3.83-6.866c0.019-0.477-0.303-0.9-0.767-1.011 c-1.121-0.269-4.054-0.722-7.039,0.884c-1.023,0.55-1.835,1.23-2.488,1.945c-0.113-1.181-0.406-2.468-1.011-3.77 c-1.684-3.621-4.553-4.797-5.392-5.071c-0.512-0.169-1.063,0.1-1.249,0.605c-0.172,0.467-1.62,4.691,0.412,9.064 C15.069,73.305,16.907,74.642,18.149,75.287z M24.526,69.675c1.813-0.973,3.606-0.994,4.753-0.856 c-0.218,1.133-0.872,3.104-2.842,4.428c-2.115,1.423-4.402,1.186-5.604,0.907C21.243,72.948,22.242,70.902,24.526,69.675z M15.026,63.343c0.954,0.526,2.307,1.58,3.24,3.588c1.207,2.595,0.942,5.122,0.64,6.499c-0.956-0.527-2.309-1.582-3.24-3.587 C14.458,67.246,14.724,64.719,15.026,63.343z"/><path fill="inherit" d="M106.641,34.997l-5.41-7.324c-0.926-1.253-2.248-2.143-3.726-2.575v-3.283 c0-1.772-1.458-3.215-3.25-3.215H88.26c-1.792,0-3.25,1.442-3.25,3.215v2.597c-0.373-0.151-0.734-0.332-1.067-0.57l-8.345-5.975 c-1.218-0.872-2.656-1.333-4.16-1.333H51.164c-3.906,0-7.085,3.136-7.085,6.991v58.109h-2.198V45.41 c-0.052-2.203-0.421-4.384-1.097-6.483c-0.553-1.715-1.305-3.354-2.24-4.894h1.288c0.334,0,0.646-0.167,0.832-0.445 s0.22-0.63,0.092-0.939l-9.37-22.55V1c0-0.552-0.447-1-1-1H11.495c-0.553,0-1,0.448-1,1v9.099l-9.369,22.55 c-0.128,0.309-0.094,0.661,0.092,0.939s0.498,0.445,0.832,0.445h1.287c-0.936,1.541-1.688,3.18-2.24,4.894 C0.423,41.023,0.054,43.205,0,45.433v52.513c0,4.073,3.358,7.387,7.487,7.387h23.998v14.83c0,3.218,2.652,5.837,5.912,5.837 h15.363c3.26,0,5.912-2.619,5.912-5.837v-14.83h42.242c3.906,0,7.085-3.136,7.085-6.991V39.115 C108,37.625,107.529,36.201,106.641,34.997z M88.26,20.6h5.995c0.689,0,1.25,0.545,1.25,1.215V24.8H87.01v-2.985 C87.01,21.145,87.57,20.6,88.26,20.6z M52.47,83.633l0.005,6.267h-2.197v-6.267H52.47z M54.475,89.9l-0.005-5.865 c1.299,0.625,2.203,1.923,2.203,3.435v2.43H54.475z M58.673,87.47c0-0.352-0.037-0.694-0.098-1.029 c3.997-0.902,6.99-3.572,7.435-6.77c0.218-1.553-0.36-2.891-0.929-3.88c2.237-1.246,4.026-3.141,4.087-5.533 c0.042-1.673-0.78-3.077-1.669-4.107c1.445-1.793,2.395-3.878,2.709-6.112C70.86,55.4,68.799,49.325,64.33,47.6 c-0.61-0.235-2.772-0.927-4.954,0.015c-2.627,1.135-4.74,4.396-3.698,7.442c0.286,0.835,0.802,1.612,1.465,2.258 c-0.475,0.573-1.134,1.203-2.052,1.709c-0.974,0.538-1.923,0.769-2.715,0.858V39.2h47.327v56.9h-41.03V87.47z M58.786,58.474 c0.372,0.18,0.749,0.296,1.124,0.382c0.029,0.974-0.127,2.329-0.969,3.588c-1.333,1.993-3.849,3.028-6.565,2.773v-3.323 c1.051-0.093,2.347-0.383,3.682-1.12C57.291,60.094,58.175,59.236,58.786,58.474z M52.376,67.232 c0.266,0.02,0.532,0.037,0.795,0.037c3.066,0,5.856-1.355,7.434-3.713c1.117-1.672,1.337-3.439,1.306-4.712 c0.096-0.025,0.198-0.034,0.292-0.067c1.646-0.578,3.125-2.32,2.75-4.236c-0.256-1.3-1.324-2.385-2.79-2.831 c-0.529-0.164-1.086,0.138-1.248,0.666c-0.16,0.528,0.138,1.087,0.666,1.248c0.745,0.227,1.299,0.738,1.409,1.303 c0.165,0.844-0.732,1.712-1.449,1.964c-0.539,0.189-1.213,0.111-1.896-0.221c-0.962-0.467-1.757-1.333-2.073-2.259 c-0.654-1.913,0.832-4.195,2.599-4.958c1.489-0.641,3.012-0.15,3.441,0.015c3.441,1.328,5.165,6.395,4.617,10.294 c-0.296,2.106-1.273,4.063-2.767,5.701c-0.01,0.01-0.024,0.013-0.035,0.024c-0.013,0.014-0.017,0.032-0.029,0.046 c-1.515,1.635-3.549,2.945-5.944,3.754c-0.522,0.177-0.804,0.744-0.627,1.267c0.141,0.417,0.53,0.681,0.947,0.681 c0.106,0,0.214-0.017,0.32-0.053c2.351-0.794,4.399-2.024,6.035-3.556c0.575,0.709,1.066,1.602,1.04,2.584 c-0.066,2.638-4.004,4.936-7.479,5.229c-3.419,0.295-6.074-1.508-7.313-2.557V67.232z M52.376,75.364 c1.541,1.025,3.805,2.104,6.58,2.104c0.294,0,0.595-0.012,0.9-0.038c1.063-0.09,2.243-0.366,3.398-0.798 c0.456,0.766,0.917,1.742,0.775,2.764c-0.34,2.441-2.829,4.496-6.156,5.157c-1.024-1.742-2.93-2.919-5.113-2.919h-0.385V75.364z M48.277,89.9h-2.198v-6.267h2.198V89.9z M41.881,89.9v-6.267h2.198V89.9H41.881z M37.684,89.9v-6.267h2.197V89.9H37.684z M33.485,89.9v-2.43c0-1.51,0.902-2.807,2.198-3.432V89.9H33.485z M33.584,83.017c-1.282,1.072-2.099,2.669-2.099,4.453v7.597 H8.297v-44.5h25.287V83.017z M33.485,98.1h13.742v17.633H33.485V98.1z M12.495,2h16.891v7.3H12.495V2z M12.163,11.3h17.555 l8.616,20.733H20.94H3.548L12.163,11.3z M7.487,103.333c-3.025,0-5.487-2.417-5.487-5.387V46.433h9.495c0.553,0,1-0.448,1-1 s-0.447-1-1-1H2.061c0.052-0.716,0.135-1.428,0.26-2.133h6.025c0.553,0,1-0.448,1-1s-0.447-1-1-1h-5.56 c0.071-0.254,0.134-0.509,0.215-0.76c0.63-1.958,1.555-3.804,2.73-5.506H20.94h15.209c1.174,1.701,2.099,3.547,2.73,5.507 c0.081,0.251,0.144,0.506,0.215,0.76h-5.561c-0.553,0-1,0.448-1,1s0.447,1,1,1h6.027c0.126,0.708,0.208,1.42,0.26,2.133h-9.435 c-0.553,0-1,0.448-1,1s0.447,1,1,1h9.495v35.2h-2.483c-0.633,0-1.241,0.101-1.813,0.284v-32.35c0-0.552-0.447-1-1-1H7.297 c-0.553,0-1,0.448-1,1v46.5c0,0.552,0.447,1,1,1h24.188v6.267H7.487z M56.673,120.163c0,2.116-1.755,3.837-3.912,3.837H37.397 c-2.157,0-3.912-1.721-3.912-3.837v-2.43h14.742c0.553,0,1-0.448,1-1V97.1c0-0.552-0.447-1-1-1H33.485v-4.2h19.99h0.001h3.196 V120.163z M106,98.342c0,2.752-2.281,4.991-5.085,4.991H58.673V98.1h42.03c0.553,0,1-0.448,1-1V38.2c0-0.552-0.447-1-1-1H51.376 c-0.553,0-1,0.448-1,1v43.433h-4.297V23.524c0-2.752,2.281-4.991,5.085-4.991h20.273c1.084,0,2.12,0.332,2.996,0.959l8.345,5.975 c0.961,0.688,2.062,1.109,3.222,1.26c0.003,0,0.006,0.002,0.009,0.002c0.001,0,0.003-0.001,0.004-0.001 c0.306,0.039,0.613,0.071,0.926,0.071h8.566c1.624,0,3.162,0.771,4.116,2.062l5.41,7.324c0.633,0.857,0.968,1.87,0.968,2.929 V98.342z"/><path fill="inherit" d="M75.365,26.396c-0.509-1.047-1.149-2.033-1.904-2.93c-0.391-0.466-0.974-0.733-1.599-0.733H51.427 c-1.158,0-2.1,0.934-2.1,2.083v4.035c0,1.148,0.941,2.083,2.1,2.083h22.669c0.675,0,1.314-0.324,1.71-0.867 c0.391-0.536,0.499-1.202,0.298-1.83C75.901,27.609,75.653,26.99,75.365,26.396z M74.096,28.933H51.427 c-0.055,0-0.1-0.037-0.1-0.083v-4.035c0-0.04,0.04-0.083,0.1-0.083l20.503,0.021c0.649,0.771,1.2,1.618,1.637,2.516 c0.247,0.509,0.46,1.04,0.623,1.618C74.177,28.905,74.148,28.933,74.096,28.933z"/><path fill="inherit" d="M86.025,71.209c-1.279-0.254-2.411-0.133-3.37,0.354c-2.17,1.1-2.517,3.543-2.883,6.129 c-0.275,1.935-0.586,4.128-1.687,6.05c-1.412,2.468-4.08,4.357-7.928,5.614c-0.525,0.171-0.812,0.736-0.64,1.261 c0.138,0.422,0.529,0.69,0.95,0.69c0.103,0,0.207-0.016,0.311-0.05c4.334-1.416,7.376-3.61,9.043-6.522 c1.29-2.255,1.63-4.65,1.93-6.763c0.352-2.478,0.627-4.027,1.808-4.626c0.551-0.281,1.249-0.339,2.077-0.175 c0.539,0.11,1.068-0.245,1.176-0.787C86.919,71.842,86.566,71.316,86.025,71.209z"/><path fill="inherit" d="M73.351,79.859c0.954-2.619,0.964-5.292,0.973-7.651c0.011-3.089,0.09-5.032,1.496-6.013 c0.582-0.406,1.335-0.612,2.237-0.612c0.031,0,0.067,0,0.093,0c0.546,0,0.992-0.439,1-0.987c0.007-0.552-0.435-1.006-0.986-1.013 c-1.394-0.01-2.538,0.309-3.488,0.971c-2.33,1.625-2.341,4.55-2.352,7.646c-0.009,2.195-0.018,4.683-0.852,6.974 c-1.249,3.429-4.361,6.353-9.25,8.691c-0.498,0.239-0.709,0.835-0.471,1.334c0.172,0.359,0.53,0.568,0.903,0.568 c0.145,0,0.291-0.031,0.431-0.098C68.462,87.098,71.916,83.797,73.351,79.859z"/><path fill="inherit" d="M93.461,43.797c-0.479-0.144-0.927-0.152-1.315-0.1c-0.427-0.72-1.146-1.211-2.004-1.332 c-1.156-0.159-2.329,0.397-2.97,1.434c-0.003,0.005-0.051,0.083-0.054,0.089c-0.828,1.408-0.731,2.815-0.566,3.622 c-0.484,0.33-0.874,0.802-1.076,1.393l-0.042,0.12c-0.244,0.708-0.195,1.468,0.137,2.14c0.336,0.679,0.92,1.187,1.644,1.428 l3.019,1.007c0.299,0.1,0.603,0.146,0.901,0.146c1.183,0,2.289-0.737,2.69-1.905l0.038-0.112c0.14-0.405,0.172-0.826,0.122-1.239 c1.423-1.171,2.091-2.831,1.677-4.317C95.536,45.73,95.01,44.264,93.461,43.797z M92.884,45.712 c0.592,0.178,0.814,0.867,0.853,0.999c0.167,0.599-0.13,1.345-0.732,1.963c-0.269-0.224-0.578-0.403-0.921-0.517l-0.399-0.133 c0.508-0.702,0.82-1.518,0.876-2.353C92.665,45.67,92.773,45.679,92.884,45.712z M88.875,44.847 c0.269-0.435,0.683-0.549,0.989-0.5c0.191,0.027,0.531,0.139,0.665,0.614c0.21,0.794-0.168,1.753-0.897,2.38l-0.568-0.189 c-0.188-0.063-0.378-0.104-0.568-0.126C88.411,46.533,88.378,45.692,88.875,44.847z M91.971,51.076l-0.038,0.113 c-0.147,0.428-0.626,0.656-1.067,0.51l-3.019-1.007c-0.214-0.071-0.386-0.219-0.483-0.417c-0.094-0.189-0.107-0.404-0.041-0.598 l0.042-0.12c0.094-0.274,0.325-0.459,0.594-0.524c0.037-0.008,0.075-0.001,0.112-0.014c0.003-0.001,0.005-0.003,0.007-0.004 c0.028-0.003,0.054-0.012,0.082-0.012c0.091,0,0.183,0.014,0.273,0.044l3.019,1.006c0.206,0.069,0.37,0.212,0.469,0.399 c0.011,0.027,0.018,0.055,0.031,0.081C92.018,50.708,92.033,50.896,91.971,51.076z"/><path fill="inherit" d="M93.8,63.134c-0.203-0.592-0.593-1.066-1.078-1.397c0.164-0.803,0.262-2.213-0.566-3.623 c-0.004-0.006-0.053-0.086-0.057-0.092c-0.637-1.032-1.803-1.598-2.967-1.43c-0.851,0.119-1.565,0.603-2.001,1.337 c-0.39-0.053-0.838-0.05-1.319,0.095c-1.24,0.374-1.951,1.473-2.201,2.376c-0.413,1.482,0.254,3.141,1.677,4.312 c-0.05,0.413-0.018,0.833,0.121,1.237l0.04,0.116c0.401,1.166,1.509,1.903,2.689,1.903c0.3,0,0.604-0.047,0.902-0.147l3.019-1.006 c0.724-0.242,1.308-0.749,1.644-1.429c0.331-0.672,0.38-1.432,0.137-2.137L93.8,63.134z M89.409,58.572 c0.304-0.043,0.72,0.067,1.021,0.555c0.475,0.807,0.434,1.639,0.349,2.123c-0.191,0.022-0.381,0.063-0.57,0.126l-0.569,0.19 c-0.728-0.627-1.106-1.589-0.889-2.404C88.878,58.711,89.218,58.599,89.409,58.572z M85.538,60.937 c0.022-0.083,0.242-0.814,0.852-0.998c0.108-0.033,0.214-0.042,0.316-0.041c0.055,0.827,0.368,1.647,0.882,2.353l-0.397,0.132 c-0.344,0.115-0.652,0.293-0.921,0.517C85.667,62.283,85.371,61.536,85.538,60.937z M91.909,64.501 c-0.097,0.197-0.269,0.345-0.482,0.417l-3.019,1.006c-0.441,0.147-0.922-0.081-1.067-0.508l-0.04-0.116 c-0.061-0.176-0.046-0.362,0.021-0.534c0.015-0.029,0.022-0.059,0.034-0.088c0.099-0.187,0.263-0.329,0.468-0.397l3.019-1.006 c0.091-0.03,0.183-0.045,0.273-0.045c0.027,0,0.051,0.009,0.077,0.012c0.003,0.001,0.005,0.003,0.008,0.004 c0.047,0.016,0.094,0.01,0.142,0.018c0.257,0.071,0.476,0.255,0.566,0.519l0.04,0.116C92.017,64.098,92.003,64.312,91.909,64.501z"/><path fill="inherit" d="M75.354,54.042c-0.05,0.413-0.018,0.833,0.121,1.238l0.04,0.116 c0.401,1.166,1.509,1.903,2.689,1.903c0.3,0,0.604-0.047,0.902-0.147l3.019-1.006c0.724-0.241,1.307-0.748,1.643-1.427 c0.332-0.671,0.381-1.432,0.138-2.139l-0.04-0.116c-0.203-0.592-0.594-1.066-1.079-1.396c0.155-0.78,0.262-2.214-0.562-3.616 c-0.005-0.009-0.056-0.091-0.061-0.1c-0.639-1.032-1.804-1.591-2.969-1.43c-0.849,0.12-1.563,0.602-1.997,1.333 c-0.39-0.053-0.84-0.046-1.32,0.099c-1.56,0.47-2.079,1.938-2.201,2.376C73.264,51.212,73.932,52.871,75.354,54.042z M81.976,53.833c-0.098,0.197-0.269,0.344-0.482,0.416l-3.019,1.006c-0.442,0.148-0.921-0.082-1.067-0.508l-0.04-0.116 c-0.06-0.175-0.046-0.359,0.019-0.53c0.016-0.031,0.024-0.063,0.036-0.094c0.1-0.185,0.262-0.327,0.467-0.396l3.018-1.006 c0.091-0.03,0.183-0.044,0.274-0.044c0.027,0,0.053,0.01,0.08,0.012c0.003,0.001,0.005,0.003,0.008,0.004 c0.037,0.012,0.075,0.006,0.112,0.014c0.269,0.065,0.499,0.25,0.593,0.522l0.04,0.116C82.083,53.428,82.069,53.643,81.976,53.833z M79.475,47.902c0.303-0.042,0.721,0.067,1.022,0.555c0.474,0.807,0.429,1.645,0.346,2.124c-0.19,0.022-0.38,0.063-0.569,0.126 l-0.568,0.189c-0.728-0.627-1.106-1.589-0.889-2.404C78.944,48.042,79.283,47.929,79.475,47.902z M75.604,50.267 c0.023-0.083,0.243-0.815,0.853-0.998c0.108-0.032,0.214-0.042,0.316-0.041c0.055,0.827,0.368,1.647,0.882,2.353l-0.397,0.132 c-0.344,0.115-0.652,0.293-0.921,0.517C75.734,51.612,75.437,50.866,75.604,50.267z"/><path fill="inherit" d="M20.571,59.28c0.584,0.231,1.098,0.549,1.53,0.945c1.284,1.176,1.497,2.736,1.512,3.545 c-0.001,0.07,0,0.135,0,0.196c0,0.014,0,0.026-0.001,0.039c-0.007,0.27,0.096,0.532,0.284,0.726 c0.188,0.193,0.448,0.303,0.719,0.303s0.528-0.109,0.717-0.303c0.188-0.194,0.29-0.456,0.283-0.726 c-0.001-0.013-0.001-0.025-0.001-0.039c0-0.061,0.001-0.126,0-0.195c0.015-0.81,0.228-2.37,1.513-3.546 c0.432-0.396,0.945-0.713,1.529-0.944c0.381-0.151,0.631-0.52,0.631-0.929s-0.25-0.778-0.631-0.93 c-0.584-0.232-1.099-0.55-1.53-0.945c-1.284-1.176-1.497-2.736-1.512-3.546c0.001-0.07,0-0.135,0-0.196 c0-0.014,0-0.026,0.001-0.039c0.016-0.552-0.42-1.012-0.972-1.028c-0.01,0-0.02,0-0.029,0c-0.001,0-0.001,0-0.001,0 c-0.01,0-0.02,0-0.029,0c-0.552,0.016-0.987,0.476-0.972,1.028c0.001,0.013,0.001,0.025,0.001,0.039c0,0.061-0.001,0.126,0,0.196 c-0.015,0.81-0.228,2.37-1.512,3.546c-0.432,0.395-0.946,0.713-1.53,0.945c-0.381,0.151-0.631,0.52-0.631,0.93 S20.19,59.128,20.571,59.28z M23.451,57.951c0.488-0.447,0.867-0.928,1.162-1.416c0.296,0.488,0.675,0.969,1.163,1.416 c0.152,0.14,0.313,0.273,0.479,0.399c-0.167,0.125-0.327,0.259-0.479,0.399c-0.488,0.447-0.867,0.928-1.162,1.416 c-0.295-0.488-0.675-0.969-1.162-1.416c-0.153-0.14-0.313-0.273-0.48-0.399C23.139,58.224,23.299,58.091,23.451,57.951z"/><path fill="inherit" d="M28.656,85.321c-0.584-0.232-1.099-0.55-1.53-0.945c-1.284-1.176-1.497-2.736-1.512-3.545 c0.001-0.07,0-0.135,0-0.196c0-0.014,0-0.026,0.001-0.039c0.016-0.552-0.42-1.012-0.972-1.028c-0.01,0-0.02,0-0.029,0 c-0.001,0-0.001,0-0.001,0c-0.01,0-0.02,0-0.029,0c-0.552,0.016-0.987,0.476-0.972,1.028c0.001,0.013,0.001,0.025,0.001,0.039 c0,0.061-0.001,0.126,0,0.196c-0.015,0.81-0.228,2.37-1.512,3.545c-0.432,0.395-0.946,0.713-1.53,0.945 c-0.381,0.151-0.631,0.52-0.631,0.929s0.25,0.778,0.631,0.929c0.584,0.232,1.099,0.55,1.53,0.945 c1.284,1.176,1.497,2.736,1.512,3.545c-0.001,0.07,0,0.135,0,0.196c0,0.014,0,0.026-0.001,0.039 c-0.007,0.27,0.096,0.532,0.284,0.726c0.188,0.193,0.448,0.303,0.719,0.303s0.528-0.109,0.717-0.303 c0.188-0.194,0.29-0.456,0.283-0.726c-0.001-0.013-0.001-0.025-0.001-0.039c0-0.061,0.001-0.126,0-0.196 c0.015-0.81,0.228-2.37,1.512-3.545c0.432-0.395,0.946-0.713,1.53-0.945c0.381-0.151,0.631-0.52,0.631-0.929 S29.037,85.472,28.656,85.321z M25.776,86.649c-0.488,0.447-0.867,0.928-1.162,1.416c-0.296-0.488-0.675-0.969-1.163-1.416 c-0.152-0.14-0.313-0.273-0.479-0.399c0.167-0.126,0.327-0.259,0.479-0.399c0.488-0.447,0.867-0.928,1.162-1.416 c0.296,0.488,0.675,0.969,1.163,1.416c0.152,0.14,0.313,0.273,0.479,0.399C26.089,86.376,25.929,86.509,25.776,86.649z"/></g></g></svg>